<?xml version="1.0" encoding="utf-8"?>
<!-- Generator: Adobe Illustrator 19.0.0, SVG Export Plug-In . SVG Version: 6.00 Build 0)  -->
<svg version="1.1" id="Laag_1" xmlns="http://www.w3.org/2000/svg" xmlns:xlink="http://www.w3.org/1999/xlink" x="0px" y="0px"
	 viewBox="-219 312.2 172.2 168.8" style="enable-background:new -219 312.2 172.2 168.8;" xml:space="preserve">
<style type="text/css">
	.st0{fill:#B8860B;}
</style>
<g id="XMLID_3_">
	<path id="XMLID_4_" class="st0" d="M-147.5,319.4c0.5,0.2,0.9,0.5,1,0.8c0.1,0.3,0.4,1.4,0.6,3.3c0.2,1.4,0.4,2.9,0.5,4.7
		c0.1,1.7,0.3,3.9,0.5,6.6c0.2,2.7,0.3,6,0.4,9.9c0.1,3.9,0.3,8.8,0.5,14.6c0,1.4,0,2.9,0,4.4c0,1.5,0.1,3,0.1,4.4
		c0.1,1.4,0.1,2.7,0.2,3.9c0.1,1.2,0.1,2.1,0.1,2.8c0,1.5,0.1,2.9,0.2,4.3c0.1,1.3,0.1,2.3,0.1,2.8c0,1,0.1,2.2,0.1,3.5
		c0,1.3,0.1,2.6,0.1,3.9c0,1.2,0,2.4,0,3.4c0,1,0,1.6,0.1,1.9c-0.1,1,0,2,0.1,3c0,1.2-0.2,1.9-0.4,2.2c-0.2,0.2-0.3-0.4-0.4-1.9
		c-0.1-1.6-0.3-2.4-0.6-2.3c-0.4,0.1-0.6,0.3-0.5,0.8c0.1,1.5,0.1,2.5,0.1,2.9c0,0.5-0.1,0.8-0.3,1c-0.8,0.7-1.2,0.2-1.1-1.5
		c0-1.1-0.1-1.4-0.3-1c-0.2,0.3-0.4,0.4-0.7,0.3c-0.3-0.1-0.4-0.4-0.3-0.9c-0.1-0.4-0.1-0.7,0-0.9c0-0.1,0.2,0,0.5,0.4
		c0.3,0.3,0.5,0.4,0.6,0.4c0,0,0-0.2,0-0.6c-0.1-0.5-0.3-0.9-0.8-1.2c-0.3-0.3-0.6-0.7-0.7-1.4c0-0.2-0.1-0.4-0.1-0.7
		c0-0.3-0.1-0.5-0.3-0.7c-0.4-0.5-0.4-0.9-0.1-1c0.3-0.1,0.4-0.4,0.3-0.7c0-0.3-0.2-0.5-0.4-0.5c-0.1,0-0.2-0.1-0.3-0.5
		c-0.1-0.3-0.2-0.7-0.2-1.2c0-0.4,0-0.9,0-1.3c0-0.4,0-0.7,0.1-0.8c0.3-0.3,0.2-0.8-0.2-1.3c-0.3-0.6-0.5-0.8-0.8-0.7
		c-0.2,0.1-0.3,0.4-0.1,0.8c0.2,0.6,0.2,0.9,0,0.9c-0.2,0-0.1,0.5,0.2,1.3c0.1,0.8,0.1,1.3,0.1,1.5c-0.1,0.1-0.1,0.4-0.2,0.9
		c0,0.5-0.1,0.9-0.3,1.3c0.2,1.1,0.1,1.8-0.3,2.3c-0.1,0-0.1,0.4,0,1.2c0.4,0.6,0.3,1-0.1,1.1c-0.3,0-0.3,0.2,0.1,0.4
		c0.3,0.3,0.4,0.6,0.2,1.2c-0.1,0.5,0,0.9,0.3,1c0.2,0.2,0.3,0.3,0.2,0.4c-0.1,0.1-0.3,0.1-0.6,0.1c-0.2,0-0.2,0.5-0.1,1.5
		c0.1,1,0.1,1.3-0.1,1.1c-0.4-0.4-0.5-0.5-0.5-0.2s0.2,0.7,0.6,1.1c0.5,0.4,0.4,0.8-0.1,1.2c-0.3,0.3-0.6,0.5-1,0.6
		c-0.2,0-0.2,0,0-0.1c0.4-0.3,0.5-0.4,0.5-0.5c0-0.2-0.2-0.3-0.5-0.2c-0.2,0.2-0.3,0.3-0.3,0.1c0-0.1,0-0.5,0.2-1
		c0.1-0.5,0.1-0.9,0-1.2c-0.3-0.2-0.6,0-1,0.6c-0.3,0.5-0.4,1.1-0.1,1.5c0,0.3,0,0.4-0.1,0.5c-0.1,0-0.3,0.2-0.6,0.7
		c0,0.4,0.1,0.4,0.3,0.1c0.8-1,1-0.8,0.7,0.7c-0.1,0.3-0.1,0.6-0.1,0.9c0,0.3,0.1,0.5,0.2,0.7c0.1,0.2,0.2,0.3,0.1,0.4
		c0,0.1-0.1,0.1-0.2,0c-0.5,0.1-0.6,0.3-0.4,0.6c0.2,0.8,0.3,1.4,0.4,1.8c0.1,0.4,0.1,1.3,0.1,2.5c0.2,1.7,0.2,2.5-0.2,2.6
		c0,0.1,0,0.3,0,0.5c0,0.2,0,0.4,0.2,0.7c0.1,0.6,0,0.8-0.2,0.8c-0.2-0.2-0.3-0.2-0.3-0.1c0,0.1,0.2,0.5,0.5,1.1
		c0.3,0.6,0.3,0.9,0.2,1.2c-0.2,0.2-0.5,0.1-1.1-0.3c-0.3-0.4-0.4-0.5-0.5-0.5c0,0,0,0.3,0,0.7c0.1,0.5,0.3,0.9,0.6,1.1
		c0.5,0.3,0.8,0.6,0.7,0.9s-0.3,0.5-0.8,0.6c-0.4,0.1-0.4,0.2-0.1,0.3c0.1,0.3,0.2,0.4,0.1,0.4c-0.2,0-0.3,0.4-0.4,1.3
		c0,0.8,0.2,1.3,0.7,1.6c0.3,0.3,0.5,0.4,0.4,0.5c0,0.1-0.3,0.1-0.7,0.2c-0.7,0.1-0.9,0.4-0.8,1c0.2,0.5,0,0.9-0.6,1.1l-0.7,0.4
		l0.9,0.2c0.5,0.3,0.7,0.6,0.6,1c0.1,0.7,0,0.9-0.4,0.7c-0.2,0-0.3,0.1-0.3,0.3c0,0.3,0.2,0.4,0.4,0.4c0.3,0.3,0.4,0.6,0.1,1
		c-0.1,0.4-0.2,0.9-0.1,1.5s-0.1,0.8-0.6,0.7c-0.2,0-0.4,0.1-0.7,0.2c-0.3,0.1-0.5,0.2-0.7,0.5c-0.6,0.4-1.2,0.5-1.6,0.4
		c-0.2-0.2-0.4-1.7-0.6-4.5c-0.2-2.8-0.4-6.6-0.6-11.4c-0.1-1-0.4-1.5-0.7-1.4c-0.5,0.1-0.7-0.1-0.5-0.4c0.1-0.4,0.1-1.1,0-2
		c-0.1-0.8,0-1.2,0.3-1.2c0.1,0.2,0.3,0.2,0.4-0.1c0.1-0.3,0-0.4-0.2-0.4c-0.4,0.1-0.6-0.9-0.5-2.8c-0.1-3-0.1-4.5-0.1-4.6l-0.2-1.3
		c0-0.3-0.1-1.1-0.2-2.5c-0.1-1.4-0.2-2.9-0.2-4.6c-0.1-1.7-0.2-3.3-0.3-4.9c-0.1-1.6-0.1-2.6-0.1-3.1c-0.1-0.5-0.2-1.5-0.3-3.1
		c-0.1-1.6-0.2-3.2-0.3-4.9c0-1.7-0.1-3.8-0.2-6.3c-0.1-2.5-0.2-4.8-0.3-6.8c-0.1-2-0.2-3.7-0.2-5.1c-0.1-1.4-0.1-2.3-0.1-2.5
		c-0.1-0.5-0.6,0.7-1.7,3.6c-1.1,2.9-2.9,8-5.3,15.2c-1.2,3.4-2,5.6-2.3,6.8c-0.3,1.1-0.3,1.8,0.1,1.9c0.3,0,0.5,0.2,0.5,0.7
		c0.1,0.4-0.2,0.5-0.7,0.4c-0.5-0.1-1-0.1-1.3,0.2c-0.2,0.2-0.7,0.4-1.5,0.5c-0.8,0.1-1.5,0.1-2,0c-1-0.2-1.6-0.2-1.7-0.1
		c-0.1,0.1-0.1,0.4,0.1,1c0.3,0.6,0.2,0.9-0.1,1c-0.3,0.1-0.8-0.1-1.4-0.6c-0.2-0.2-0.4-0.4-0.6-0.6c-0.2-0.2-0.3-0.3-0.4-0.3
		c-0.4,0.1-0.4,0.3,0.1,0.6c0.3,0.3,0.5,0.6,0.6,1c0.1,0.4-0.1,0.6-0.5,0.7c-0.4,0.1-0.5,0.3-0.2,0.6c0.4,0.3,0.4,0.4-0.3,0
		c-0.5-0.3-0.8-0.3-0.9,0.1c0,0.4-0.4,0.7-0.9,0.7c-0.7,0.1-1,0.3-1,0.6c0,0.3-0.2,0.4-0.7,0.3c-0.5-0.1-0.9,0-1.2,0.3
		c-0.4,0.3-0.6,0.4-0.9,0.1c-0.3-0.4-0.4-0.5-0.5-0.4c-0.3,0.1-0.7-0.1-1.1-0.6c-0.1-0.2-0.4-0.6-0.8-1.3s-0.8-1.5-1.3-2.3
		c-0.5-0.8-0.9-1.7-1.3-2.6c-0.4-0.9-0.8-1.7-1.1-2.5c-0.3-0.7-1-2.1-2-4.3c-1.1-2.2-2.1-4.5-3.2-6.9c-1.1-2.4-2.1-4.6-3-6.5
		c-0.9-2-1.5-3-1.6-3.2c-0.2-0.3-0.3,0-0.3,0.9c0,0.9,0,3,0,6.3c0,2.9,0,5.7,0.1,8.5c0,2.7,0.1,5.3,0.1,7.7c0,2.4,0.1,4.5,0.1,6.4
		c0,1.9,0.1,3.3,0.1,4.3c0,1.3,0,2.9,0.1,4.7c0.1,1.8,0.1,3.4,0.1,4.7c0,1.4,0.1,2.8,0.2,4.3c0.1,1.4,0.2,2.8,0.3,4.2
		c0.1,1.3,0.2,2.5,0.3,3.6c0.1,1.1,0.2,1.9,0.3,2.4c0.1,0.7,0,1.2-0.4,1.4c-0.3,0.2-0.4,0.1-0.5-0.4c-0.1-0.4-0.2-0.6-0.4-0.5
		c-0.2,0-0.3,0.2-0.2,0.6c0.1,0.4-0.1,0.6-0.5,0.7c-0.4,0.1-0.6-0.1-0.7-0.5c-0.1-0.4-0.2-0.6-0.5-0.5c-0.2,0-0.3,0.2-0.2,0.6
		c0.1,0.4,0,0.6-0.3,0.6c-0.2,0-0.4-0.1-0.6-0.5c-0.1-0.2-0.5-0.1-1,0.1c-0.5,0.4-1.3,0.7-2.2,1.1c-1,0.3-1.9,0.6-2.9,0.9
		c-1,0.2-1.9,0.4-2.7,0.5c-0.8,0.1-1.4,0-1.6-0.1c-0.6-0.4-1.2-5.5-2-15.2c-0.2-3.6-0.4-7.5-0.6-11.8c-0.2-4.3-0.2-8.6-0.2-13.1
		c0-4.5,0.1-8.9,0.1-13.2c0.1-4.4,0.2-8.5,0.5-12.3c0-0.5,0-1,0-1.5c0-0.5,0-0.8-0.1-1c-0.1-0.5,0-0.9,0.1-1.4
		c0.1-0.5,0.2-1.5,0.2-2.9c0-1.4,0.1-2.2,0.3-2.4c0.1,0,0.1-0.6-0.1-1.6c-0.3-1-0.2-1.3,0.3-1.1c0.2,0.1,0.4,0,0.4-0.1
		c0.1-0.2,0.1-0.5,0-1.1c-0.2-0.4-0.2-0.7-0.2-0.9c0-0.3,0-0.4,0-0.5l-0.1-0.6c0.1,0,0.2-0.2,0.4-0.7c0-0.2,0-0.5,0-1
		c0-0.5,0.1-1.1,0.2-1.9c0-1.6,0.1-2.6,0.3-2.9c-0.1-0.4-0.2-0.6-0.5-0.5c-0.3,0-0.5-0.3-0.6-1.1c0-0.7,0.2-0.9,0.5-0.7
		c0.2,0.3,0.3,0.1,0.2-0.5c-0.3-0.8-0.4-1.1-0.2-1.2c0.2,0,0.2-0.4,0.1-1c-0.1-0.6-0.5-1.9-1.2-3.8c-0.2-0.4,0-0.7,0.6-1
		c0.4-0.2,1.2-0.3,2.3-0.6c1.2-0.2,2.4-0.4,3.7-0.5c1.3-0.1,2.5-0.2,3.6-0.2c1.1,0,1.7,0,1.8,0.1c0.3,0.2,0.6,0,0.8-0.6
		c0.1-0.5,1.1-0.9,2.8-1.2c1.6-0.3,2.5-0.4,3-0.1c0,0.2-0.1,0.3-0.3,0.3c-0.3,0-0.3,0.3,0.1,0.7c0.7,0.9,1.7,2.4,2.9,4.5
		c1.2,2.1,2.5,4.7,4,7.7c1.5,3,3.1,6.3,4.8,9.8c1.7,3.6,3.4,7.2,5,11c0.3,0.6,0.5,1.1,0.7,1.6c0.2,0.5,0.4,1,0.6,1.3l0.6,1.3
		c0.1,0.1,0.5-0.6,1.1-2.2c0.6-1.5,1.3-3.4,2.1-5.5c2.1-5.4,4.1-10.4,5.9-14.9c1.8-4.5,3.2-7.9,4.2-10.1c0.1-0.4,0.3-0.9,0.6-1.5
		c0.3-0.6,0.5-1.1,0.6-1.7c0.1-0.5,0.4-1.2,0.8-2.1c0.4-0.9,0.7-1.6,1-2.2c0.4-0.7,0.7-1.4,1-2.1c0.2-0.7,0.4-1.4,0.6-1.9
		c0.3-0.8,0.7-1.5,1.1-2c0.5-0.5,0.9-0.7,1.2-0.4c0.1,0.1,0.3,0.1,0.7,0.1s0.7-0.1,1.1-0.2c1.1,0,1.7,0.2,1.8,0.3
		c0,0.3,0.3,0.4,0.7,0.4c0.4-0.1,0.6,0.1,0.7,0.4c0,0.3,0.3,0.3,0.8,0c0.4-0.2,1-0.1,1.8,0c0.8,0.4,1.3,0.4,1.7,0.1
		c0.5-0.3,1.1-0.4,2-0.5C-149,319.2-148.3,319.2-147.5,319.4z M-212.4,347.3c-0.3,0.4-0.4,0.7-0.3,0.7c0.2,0,0.5-0.1,0.9-0.5
		c0.3-0.4,0.4-0.7,0.2-0.6C-211.7,346.8-212,346.9-212.4,347.3z M-207,357.8c0-0.7-0.3-1.7-0.8-3.1c-0.5-1.4-1-2.3-1.2-2.8
		c-0.2-0.2-0.5,0-0.8,0.6c-0.1,0.6-0.1,1,0,1.2c0.1,0.2,0.1,0.2-0.1,0.2c-0.3-0.2-0.5-0.5-0.6-1c-0.1-0.5,0-1,0.3-1.3
		c0.2-0.1,0.3-0.2,0.3-0.3c0-0.1-0.1-0.1-0.2-0.1c-0.2,0-0.4-0.5-0.5-1.7c0-0.8-0.1-1.3-0.3-1.5c-0.2-0.2-0.3,0.1-0.2,0.9
		c0,0.2,0,0.6,0,1.1c0,0.6,0,1.1-0.1,1.6c0,0.6,0,1.1,0,1.6c0,0.4,0,0.8,0.1,1c0.2,0.2,0.2,0.6-0.1,1.4c-0.1,0.6-0.1,1.1,0.2,1.3
		c0.2,0.1,0.4,0,0.5-0.2c0.1-0.2,0.2-0.7,0.3-1.5c0-0.4,0.3-0.4,0.8,0c0.3,0.5,0.3,0.7,0.3,0.7c-0.2,0.5-0.3,1.4-0.2,2.6
		c0.2,3.3,0.1,5-0.1,5.3c-0.2,0.2-0.2,0.7,0,1.3c0.2,0.7,0.4,1,0.6,1c0.3,0,0.5,0.1,0.5,0.5c0.1,0.4-0.1,0.8-0.4,1.1
		c-0.2,0.5-0.2,1.2,0,2c0.1,0.9,0.1,1.3-0.1,1.2c-0.2-0.1-0.2,0-0.1,0.3c0.3,0.3,0.5,0.5,0.5,0.7l0.1,0.4c0.1,0.2,0.3,0.2,0.4-0.1
		c0.3-0.1,0.4-0.7,0.2-1.5c-0.1-0.9-0.3-1.3-0.6-1.3c-0.2,0-0.3-0.1-0.4-0.4c0-0.2,0.2-0.2,0.6-0.1c0.5,0,0.6-0.6,0.3-2
		c-0.1-0.4,0-0.6,0.2-0.6c0.4-0.1,0.6-0.5,0.6-1.3c0-0.8-0.1-1.4-0.5-1.7c-0.3-0.3-0.4-0.4-0.1-0.4c0.2,0,0.4-0.6,0.6-1.7
		C-207,359.9-207,358.9-207,357.8z M-204.3,370.4c-0.2-0.1-0.3,0.1-0.2,0.5c0.1,0.5,0.2,0.6,0.4,0.4L-204.3,370.4z M-204.6,369.1
		c0.4,0.5,0.5,0.3,0.4-0.4c-0.1-0.4-0.2-0.5-0.3-0.3C-204.8,368.9-204.9,369.1-204.6,369.1z M-204.2,365.2c0.1-0.5,0.2-1,0.3-1.4
		c0-0.4,0.1-0.7,0-0.9c-0.1-0.5-0.2-0.7-0.4-0.7c-0.2,0-0.3,0.4-0.4,1.3c-0.1,0.8-0.1,1.6,0,2.4
		C-204.5,366.9-204.3,366.7-204.2,365.2z M-201.1,328.6c0.2,0,0.3-0.1,0.3-0.2c-0.1,0-0.2,0-0.2-0.1c0-0.1,0-0.1-0.1-0.1
		c-0.1,0-0.1,0-0.1-0.1c-0.3,0-0.4,0.1-0.4,0.2C-201.6,328.5-201.4,328.6-201.1,328.6z M-201.1,327.4c0.3,0,0.4-0.1,0.4-0.2
		c-0.3-0.1-0.6,0-0.7,0.1C-201.6,327.4-201.5,327.4-201.1,327.4z M-195.3,349.2c0.2-0.2,0-0.5-0.4-0.8c-0.2-0.3-0.4-0.4-0.4-0.5
		c0,0,0,0.1,0.1,0.4c0,0.3,0.1,0.6,0.3,0.8C-195.7,349.3-195.5,349.3-195.3,349.2z M-194.7,351.4c0.1-0.1,0.1-0.4,0-0.8
		c-0.2-0.2-0.3-0.1-0.3,0.2C-194.9,351.3-194.8,351.5-194.7,351.4z M-189.8,361.5c-0.1-0.5-0.2-0.8-0.3-1c-0.4-0.3-0.5-0.1-0.1,0.6
		c0,0.2,0.1,0.3,0.2,0.4C-189.9,361.6-189.8,361.6-189.8,361.5z M-187.8,366.4c0.3-0.3,0.1-0.7-0.3-1.2c-0.3-0.5-0.3-0.4-0.1,0.3
		c0.2,0.7,0.3,1,0.3,1.1C-187.9,366.7-187.9,366.6-187.8,366.4z M-184.6,374.2c0.3-0.2,0.1-1.1-0.5-2.5c-0.8-1.8-1.3-2.8-1.5-3.2
		c-0.2-0.3-0.2-0.1,0.1,0.7c0.3,0.9,0.5,1.4,0.6,1.7c0.1,0.3,0.3,0.7,0.5,1.1c0,0.2,0.1,0.4,0.2,0.6c0.1,0.2,0.1,0.3,0,0.5
		c-0.2,0.2-0.1,0.4,0.2,0.6c0.2,0.2,0.3,0.4,0.1,0.6C-185,374.7-184.9,374.7-184.6,374.2z M-184.2,362c-0.3-0.5-0.4-0.6-0.5-0.5
		c-0.1,0.1-0.1,0.4,0.1,0.7c0.2,0.4,0.3,0.6,0.5,0.5L-184.2,362z M-182.1,367.3c0.1,0,0.1-0.2-0.1-0.6c-0.1-0.5-0.2-0.7-0.4-0.7
		c-0.1,0-0.1,0.1-0.1,0.2l0.1,0.6C-182.6,367.1-182.4,367.3-182.1,367.3z M-159.1,419.9c0.2,1.1,0,1.3-0.3,0.8l-0.1-0.9
		C-159.5,419.3-159.3,419.4-159.1,419.9z M-154.1,431.2c0-0.3-0.3-0.2-0.7,0.4c-0.4,0.3-0.6,0.5-0.7,0.5c-0.1,0-0.3-0.2-0.5-0.7
		c-0.7-1.4-1-1.4-0.8,0c0.1,0.8,0.8,1.1,1.9,0.9c0.2,0,0.3-0.1,0.3-0.3c-0.2-0.2-0.2-0.3,0.1-0.3
		C-154.2,431.7-154,431.5-154.1,431.2z M-153.7,417.2c0.3,0,0.4-0.4,0.3-0.9c0-0.2-0.1-0.4-0.2-0.6c-0.1-0.2-0.1-0.3-0.1-0.4
		c-0.1-0.1-0.2,0.2-0.3,0.9l0.1,0.7C-153.9,417-153.8,417.1-153.7,417.2z M-153.5,410.3l0.1-0.3c0-0.2-0.2-0.3-0.5-0.2
		c-0.3,0-0.3,0.1-0.1,0.3c0.1,0.3,0.3,0.4,0.5,0.4L-153.5,410.3z M-153.2,409.2c0-0.1-0.1-0.2-0.4-0.4c-0.3-0.3-0.5-0.2-0.4,0.2
		c0,0.2,0.2,0.3,0.5,0.2L-153.2,409.2z M-150.4,413c0.4-0.1,0.4,0,0,0.3c-0.3,0.3-0.3,0.6,0,0.8c0.1,0.3,0.1,0.4-0.2,0.5
		c-0.4,0.1-0.6-0.2-0.6-0.8c0.1-0.3,0.1-0.6,0.2-0.9c0.1-0.3,0.1-0.5,0.2-0.7c0.2-0.2,0.2-0.1,0.2,0.3
		C-150.8,412.8-150.7,413-150.4,413z M-151,406.8c0.2,0,0.4,0.4,0.5,1.1c-0.1,0.8-0.2,1.3-0.5,1.3c-0.2,0.1-0.4-0.3-0.4-1.1
		c0-0.3,0-0.6,0-0.9C-151.3,407-151.2,406.8-151,406.8z M-151.3,405.3c-0.3-0.5-0.3-0.7-0.1-0.8c0.2-0.1,0.5,0.1,0.8,0.6
		c0.2,0.5,0.2,0.7,0.1,0.7C-150.9,405.9-151.2,405.7-151.3,405.3z M-152.3,391.4c0.3,0,0.4-0.1,0.4-0.2l-0.2-0.1
		c-0.2,0-0.3-0.1-0.3-0.3c-0.2,0-0.3,0.1-0.3,0.3C-152.6,391.3-152.5,391.4-152.3,391.4z M-149,381.7c-0.2-2.5-0.3-4.5-0.3-6
		c-0.1-1.5,0-2.3,0.2-2.4c0.2-0.2,0.1-0.6-0.2-1.2c-0.4-0.2-0.5-0.5-0.3-0.9c0.2-0.2,0.2-0.8,0-1.8c-0.2-1-0.4-1.4-0.6-1.4
		c-0.2,0-0.2,0.8,0,2.2c0.2,1.6,0.3,2.7,0.2,3.3c-0.1,0.3-0.1,0.9-0.1,1.7c0,0.8,0.1,1.6,0.2,2.4c0,0.8,0.1,1.6,0.1,2.4
		c0.1,0.8,0.1,1.3,0.1,1.5c0.1,0.6,0.1,1.1-0.1,1.5c0.1,0.4,0,0.5-0.3,0.3c-0.3-0.3-0.5-0.2-0.4,0.2c0,0.2,0.2,0.3,0.7,0.4
		c0.4,0.1,0.7,0.1,0.7,0C-148.8,383.8-148.8,383-149,381.7z M-148.1,395.7c-0.2,0.3-0.3,0.5-0.4,0.4c-0.1,0-0.2-0.2-0.2-0.5
		c0-0.2,0-0.3,0.1-0.5c0.1-0.1,0.2-0.1,0.3,0C-148,395.4-148,395.6-148.1,395.7z M-147,399.2c0.2,0.6,0.3,1.2,0.3,1.8
		c-0.1,0.7-0.1,1.1,0,1.2c0,0.2-0.1,0.3-0.3,0.3c-0.1,0.2-0.1,0.3-0.2,0.2c-0.1-0.1-0.1-0.2-0.1-0.3c-0.1-0.2-0.2-0.4-0.2-0.6
		c0-0.2-0.1-0.4-0.1-0.6c-0.2-0.3-0.2-0.6,0-0.9c0.2-0.2,0.2-0.6,0.1-1.1l-0.1-0.7L-147,399.2z M-145.6,401.1c0.3,0.2,0.5,0.5,0.6,1
		c0,0.2,0,0.5,0,1c0,0.5,0,0.9,0.1,1.4c0,1.1-0.3,1.6-0.7,1.6c-0.4-0.1-0.5-0.4-0.1-0.9c0.1-0.5,0.1-0.8-0.1-0.7
		c-0.2,0-0.3-0.3-0.3-0.9c0-0.6,0.1-1.1,0.4-1.6c0.2-0.2,0.1-0.5-0.1-0.7c-0.1-0.1-0.2-0.2-0.1-0.2C-146,401-145.9,401-145.6,401.1z
		 M-145.6,408.4c0.1-0.1,0.2,0,0.5,0.2c0.2,0.3,0.3,0.4,0.2,0.5c-0.1,0.1-0.3,0-0.5-0.3c-0.1,0-0.2-0.1-0.2-0.3L-145.6,408.4z
		 M-147.9,387.1c0.2-0.2,0.2-0.4,0.2-0.4c-0.1,0-0.1,0-0.2,0.1c-0.3,0.2-0.4,0.5-0.4,0.7c0,0.2,0.1,0.3,0.2,0.2
		C-148.1,387.6-148,387.5-147.9,387.1z M-149.9,365.7c-0.2-0.1-0.3,0.1-0.2,0.5c0.1,0.5,0.2,0.6,0.4,0.4L-149.9,365.7z
		 M-147.1,386.7c0.1,0,0.1-0.2,0.1-0.6c-0.2-0.3-0.3-0.2-0.3,0.2C-147.2,386.8-147.2,386.9-147.1,386.7z M-143,416.6
		c0-0.3,0-0.4,0.3-0.2c0.1,0.4,0,0.6,0,0.8C-142.8,417.3-142.9,417.1-143,416.6z M-149.7,363.8c0.1-0.2,0.1-0.6,0-1
		c-0.3-0.2-0.5-0.2-0.6-0.1c-0.3,0.1-0.3,0.5,0,1.1C-150.1,364.4-149.9,364.5-149.7,363.8z M-150.4,360.6c0.4,0.7,0.5,0.4,0.3-0.9
		c-0.1-0.6-0.1-0.9-0.1-1c0,0-0.1,0.2-0.2,0.7c-0.1,0.2-0.1,0.4-0.1,0.7C-150.4,360.4-150.4,360.5-150.4,360.6z M-144.1,391.8
		c0-1.3-0.1-1.7-0.5-1.3c-0.3,0-0.4,0.5-0.3,1.2c0.1,0.6,0.1,1.3,0,2.1c0,0.9,0.2,1.3,0.5,1.3c0.4-0.1,0.5-0.4,0.5-1
		c0-0.2-0.1-0.5-0.1-1C-144.1,392.8-144.1,392.4-144.1,391.8z M-150.4,353.3c0-0.2-0.1-0.2-0.1-0.1c0,0.1,0,0.3,0,0.5
		c0,0.2,0.1,0.3,0.1,0.4c0.1,0.1,0.1,0.1,0.1,0C-150.1,353.8-150.1,353.6-150.4,353.3z M-143.2,402.5c0.5-0.1,0.5,0.3,0.2,1.2
		c-0.1,0.6-0.2,0.5-0.3-0.3C-143.4,402.9-143.4,402.5-143.2,402.5z M-144.8,390c0.4-0.1,0.6-0.2,0.5-0.4c-0.2,0-0.3,0-0.5,0
		c-0.1,0-0.2,0-0.4,0.1C-145.3,390-145.2,390.1-144.8,390z M-144.6,387c0.3,0,0.4-0.2,0.4-0.5c0-0.2-0.2-0.3-0.5-0.2
		c-0.2,0-0.3,0.1-0.3,0.3C-145,386.9-144.8,387-144.6,387z M-144.3,387.5c0-0.2-0.1-0.3-0.3-0.3c-0.2,0-0.3,0.1-0.3,0.3
		c0,0.3,0.1,0.4,0.2,0.4C-144.6,388-144.4,387.8-144.3,387.5z M-144.6,383.8c0.2,0,0.3-0.1,0.3-0.3c0-0.3-0.2-0.4-0.4-0.4
		c-0.3,0-0.4,0.2-0.4,0.5C-145.1,383.8-144.9,383.9-144.6,383.8z M-144.4,384.5c0.2-0.2,0.1-0.3-0.2-0.3c-0.3,0-0.4,0.2-0.4,0.4
		c0,0.3,0.2,0.4,0.4,0.4c0.1,0,0.1-0.1,0.1-0.2L-144.4,384.5z M-144.5,382c0.1-0.5,0-0.8-0.3-0.7c-0.2,0-0.3,0.1-0.3,0.2
		c0,0.1-0.1,0.4-0.2,0.8c0,0.4,0,0.6,0.2,0.6C-144.7,382.8-144.6,382.5-144.5,382z M-144.8,380.7c0.3,0,0.4-0.7,0.2-2
		c-0.2-1.1-0.3-1.6-0.4-1.4c-0.1,0.1-0.2,0.8-0.1,2C-145.2,380.5-145,381-144.8,380.7z M-144.8,376.3c0.2-0.2,0.1-0.3-0.2-0.3
		c-0.3,0-0.4,0.2-0.4,0.4c0,0.3,0.2,0.4,0.4,0.4l0.1-0.2L-144.8,376.3z M-145.1,375.6c0.3,0,0.4-0.2,0.4-0.5c0-0.2-0.1-0.3-0.3-0.3
		l-0.1,0.2c-0.1,0-0.1,0.1-0.1,0.2C-145.4,375.5-145.4,375.7-145.1,375.6z M-145.2,373.6c0.2,0,0.3-0.1,0.4-0.2
		c0.1-0.1,0.1-0.2,0-0.3c-0.2-0.1-0.4,0.1-0.7,0.4C-145.7,373.8-145.6,373.8-145.2,373.6z M-145.4,371c0.3,0.4,0.4,0.4,0.5,0.1
		c0.1-0.3,0.1-0.8,0-1.5c-0.1-0.5-0.2-0.7-0.4-0.7c-0.2,0-0.3,0.3-0.3,0.7C-145.7,370.1-145.6,370.6-145.4,371z M-145.3,368.5
		c0.2,0,0.3-0.1,0.3-0.3c0-0.3-0.1-0.4-0.2-0.4c-0.1,0-0.1,0.1-0.1,0.2c0,0.1,0,0.2-0.1,0.3C-145.7,368.4-145.6,368.5-145.3,368.5z"
		/>
	<path id="XMLID_55_" class="st0" d="M-65.6,325.9c4.4,5.1,7.3,10.3,8.7,15.7c1.4,5.4,1.4,11.8,0,19c-0.6,3.9-1.6,7.7-2.9,11.4
		c-1.3,3.7-2.8,7.1-4.4,10.4c-1.7,3.2-3.5,6.2-5.6,8.8c-2,2.6-4.1,4.9-6.3,6.7c-1.5,1.3-2.7,2.2-3.5,2.5c-0.8,0.4-1.4,0.5-1.7,0.3
		c-0.3-0.3-0.5-0.1-0.4,0.4c0.1,0.5-0.5,1-1.6,1.6c-2.1,1.2-4.4,2.1-6.9,2.8c-2.5,0.7-4.6,0.9-6.6,0.8c-0.6-0.1-1.7-0.2-3.2-0.3
		c-1.5-0.1-3-0.1-4.4-0.1c-3-0.2-5.5-0.3-7.4-0.5c-1.9-0.2-3.5-0.4-4.8-0.7c-1.3-0.3-2.4-0.7-3.3-1.1c-0.9-0.4-1.9-1-2.9-1.8
		c-1-0.8-2-1.7-3.1-2.9c-1.1-1.1-2.1-2.4-3-3.7c-0.9-1.3-1.8-2.6-2.5-3.9c-0.7-1.3-1.3-2.5-1.6-3.5c-0.1-0.8-0.3-1.5-0.6-2
		c-0.3-0.8-0.6-1.8-1-3.2c-0.3-1.4-0.6-3.1-0.8-5.1c-0.6-5-0.7-10.2-0.1-15.7c0.5-5.4,1.5-10.6,3-15.7c1.5-5,3.4-9.7,5.8-14
		c2.4-4.3,5.1-8,8.2-10.9c2.8-2.7,5.4-4.7,7.6-6c2.3-1.3,4.9-2.1,7.8-2.5c1-0.1,1.8-0.3,2.4-0.3c0.6-0.1,1.1-0.1,1.6-0.1
		c0.5,0,1,0.1,1.6,0.3c0.6,0.2,1.3,0.4,2.1,0.7c1.8,0.5,3.6,1,5.4,1.3c1.8,0.3,3.8,0.6,5.8,0.8c3.2,0.1,6.3,1.1,9.2,2.7
		C-71.7,319.7-68.7,322.3-65.6,325.9z M-122.9,374.4c0.3,0,0.4-0.3,0.4-0.7c0-0.2-0.2-0.3-0.5-0.2c-0.2,0-0.3,0.2-0.2,0.6
		C-123.2,374.6-123.1,374.6-122.9,374.4z M-122.8,370.8c0.4-0.1,0.6-0.1,0.6-0.2c0-0.2-0.2-0.3-0.4-0.4c-0.3-0.1-0.4,0-0.5,0.2
		C-123.3,370.7-123.2,370.9-122.8,370.8z M-118.7,371.4c0.2,0,0.3-0.2,0.2-0.5c0-0.3-0.1-0.4-0.2-0.4c-0.2,0-0.3,0.2-0.4,0.5
		C-119,371.3-118.9,371.4-118.7,371.4z M-74.8,343.4c-0.2-1.4-0.4-2.5-0.5-3.5c-0.1-1-0.3-1.9-0.6-2.7c-0.3-0.8-0.5-1.5-0.8-2.2
		c-0.3-0.7-0.7-1.4-1.2-2.1c-0.1-0.2-0.3-0.5-0.6-1c-0.3-0.5-0.5-1-0.8-1.5c-0.7-1.2-1.6-2.6-2.9-4.2c-1.3-1.6-2.5-3-3.8-4.2
		l-1.9-1.8l-2,0.4c-3.1,0.7-6.3,2.8-9.7,6c-3.4,3.3-6.4,7.2-8.9,11.8c-1.3,2.5-2.4,4.6-3.1,6.4c-0.8,1.8-1.5,3.9-2.2,6.5
		c-2.3,8.3-3.2,16.3-2.7,24c0.5,7.7,2.5,14,5.9,18.9c0.4,0.5,0.8,1.2,1.4,1.9c0.6,0.7,1.1,1.4,1.8,1.9c0.6,0.6,1.2,1.1,1.6,1.5
		c0.5,0.4,0.7,0.6,0.8,0.6c0.2,0,0.5-0.1,0.9-0.3c0.4-0.2,1-0.4,1.6-0.8c0.6-0.3,1.2-0.6,1.8-0.9c0.6-0.3,1.1-0.6,1.4-0.9l1.4-0.8
		c0.1,0,0.4-0.3,1-0.7c0.6-0.5,1.2-1.1,2-1.7c0.8-0.7,1.5-1.4,2.3-2.1c0.8-0.8,1.5-1.4,2.1-2c3-3.1,5.5-6.6,7.5-10.3
		c2.1-3.7,3.9-8.2,5.4-13.5c1.4-4.8,2.3-9,2.8-12.5C-74.3,350-74.3,346.6-74.8,343.4z M-64.7,367.2c0-0.3-0.2-0.4-0.4-0.4
		c-0.3,0-0.5,0.2-0.5,0.5c0,0.2,0.1,0.3,0.2,0.3C-65,367.5-64.7,367.4-64.7,367.2z M-64.3,365.8c0.2-0.2,0.2-0.5,0.2-0.9
		c-0.1-0.4-0.1-0.5-0.3-0.3c-0.1,0.2-0.2,0.5-0.3,0.9C-64.6,365.7-64.5,365.8-64.3,365.8z M-62.6,358.8c0.1-0.4,0.2-0.8,0.1-1.2
		c-0.1-0.2-0.2-0.1-0.3,0.2c-0.2,0.5-0.3,0.9-0.3,1.2C-62.9,359.3-62.8,359.2-62.6,358.8z M-61.9,353.1c0.1-0.8,0.1-1.2,0-1.3
		c-0.1,0-0.2,0.1-0.3,0.6c-0.4,0.9-0.5,1.6-0.4,2.2c0.1,0.8,0.1,1.2-0.1,1.2c-0.1,0.4-0.2,0.7,0,0.8c0.2,0.2,0.4-0.1,0.6-0.8
		C-61.9,355.1-61.8,354.2-61.9,353.1z M-61.5,350.1c0.1-0.6,0.1-1.6-0.1-2.8c-0.1-0.5-0.1-0.8-0.2-1c-0.1-0.2-0.1-0.1-0.1,0.2
		c-0.1,0.7-0.2,1.1-0.4,1.3c0,0.1,0,0.3,0,0.7c0,0.4,0.1,0.8,0.3,1.2C-61.8,350.8-61.6,351-61.5,350.1z M-57.3,352.3
		c0.1,0,0.2-0.3,0.3-0.9c0.1-0.5,0-0.8-0.3-0.7c-0.1,0-0.2,0.3-0.3,0.8C-57.7,352.1-57.6,352.4-57.3,352.3z"/>
	<path id="XMLID_67_" class="st0" d="M-170.9,469.1c-0.2,0-0.4-0.3-0.6-0.9c-0.2-0.5-0.3-0.9-0.3-1.3c-0.1-0.2-0.2-0.5-0.2-0.7
		c0-0.3-0.1-0.5-0.2-0.6c-0.1-0.1-0.1-0.3-0.1-0.5c0-0.2-0.1-0.3-0.2-0.4c0-0.1-0.1-0.2-0.1-0.3c-0.1-0.1-0.1-0.2-0.1-0.3
		c0-0.1-0.1-0.2-0.1-0.2c-0.1-0.1-0.1-0.1-0.1-0.2c-0.1,0-0.2-0.1-0.1-0.4c0-0.2-0.1-0.3-0.3-0.3c-0.1,0-0.2,0.2-0.1,0.6
		c0.2,0.4,0.3,0.8,0.4,1.2c0.1,0.4,0.1,0.6,0,0.6c-0.1,0-0.1,0-0.1,0.1c0,0,0.1,0.1,0.2,0.1c0.2,0.1,0.2,0.3,0.3,0.8
		c0,0.4,0,0.7,0.2,0.6c0.1,0,0.2,0.1,0.2,0.2c0,0,0,0.3,0.2,0.8c0.2,0.4,0.2,0.6,0.1,0.5c-0.2,0-0.2,0.1,0.1,0.5
		c0.1,0.2,0.2,0.5,0.3,0.9c0.1,0.4,0.1,0.6,0,0.6c-0.1,0.1,0,0.2,0.1,0.3c0.1,0,0.1,0.2,0.2,0.4c0.1,0.3,0.2,0.5,0.2,0.8
		c0.1,0.3,0.1,0.6,0.1,0.8c0,0.2,0,0.4-0.1,0.4c-0.1,0-0.1,0-0.2-0.1c0,0-0.1-0.1-0.1-0.2c0-0.1-0.1-0.3-0.1-0.4
		c-0.2-0.4-0.3-0.8-0.3-1.3c-0.1-0.5-0.2-0.8-0.4-1c-0.1-0.1-0.2-0.2-0.2-0.3c0-0.1,0-0.2,0-0.3c0.1-0.3,0-0.4-0.2-0.5
		c-0.1,0-0.1-0.2-0.1-0.4c0.1-0.2,0.1-0.3,0.1-0.3c0,0,0,0-0.1,0.1c-0.1,0.1-0.1,0-0.1-0.3c0-0.3,0-0.5-0.1-0.5
		c-0.1-0.1-0.1,0-0.1,0.2c0,0.2,0,0.3-0.2,0.3c-0.2,0-0.3-0.2-0.3-0.4c-0.1-0.2-0.1-0.4,0.2-0.4c0.2,0,0.3-0.3,0.2-0.7
		c-0.1-0.4-0.2-0.6-0.3-0.6c-0.2,0-0.2,0.4,0,0.9c0,0.2-0.1,0.2-0.3-0.1c-0.2-0.2-0.4-0.4-0.4-0.7c0-0.2-0.1-0.5-0.3-0.8
		c-0.2-0.3-0.4-0.7-0.6-1.2c-0.1-0.5-0.2-0.9,0-1c0.1,0,0.1-0.2-0.1-0.4c-0.2-0.3-0.3-0.5-0.3-0.8c0-0.2-0.1-0.3-0.3-0.3
		c-0.4-0.1-0.3-0.4,0-0.9c0.1-0.2,0.1-0.2-0.1-0.1c-0.2,0-0.3-0.1-0.4-0.3c-0.1-0.1-0.2-0.2-0.2-0.3s0-0.3-0.1-0.4
		c0-0.1,0-0.1,0-0.2c0-0.1-0.1-0.2-0.1-0.3c-0.1-0.1-0.2-0.3-0.3-0.6c-0.1-0.3-0.2-0.7-0.4-1.2c-0.2-0.5-0.3-0.9-0.3-1.2
		c-0.1-0.3-0.1-0.4,0-0.5c0.2-0.1,0.1-0.3-0.1-0.5l-0.3-0.2c0-0.3-0.1-0.3-0.2,0c-0.1,0.3-0.1,0.6,0,0.9c0,0.3,0.1,0.5,0.2,0.4
		c0.2,0,0.3,0.2,0.3,0.8c0,0.2,0.1,0.4,0.1,0.6c0,0.2,0.1,0.3,0.2,0.3c0.1,0,0.1,0.1,0.2,0.3c0.1,0.2,0.1,0.3,0.2,0.5
		c0.1,0.2,0.1,0.3,0.1,0.5c0,0.1,0,0.2-0.1,0.1c-0.2-0.1-0.2,0-0.2,0.1c0,0.2,0.1,0.3,0.2,0.4c0.1,0.1,0.1,0.2,0.2,0.2
		c0.1,0,0.1,0.1,0.1,0.2c0,0.2,0.1,0.4,0.1,0.5c0.4,1,0.5,1.5,0.3,1.3c-0.1,0-0.2,0.1-0.2,0.3c0,0.2,0.1,0.3,0.3,0.3
		c0.1,0,0.1,0.2,0.1,0.5c-0.1,0.3,0,0.5,0.1,0.6c0.1,0.1,0.2,0.1,0.4-0.1c0.1-0.1,0.2,0,0.2,0.3c0,0.3,0,0.5-0.2,0.6
		c-0.1,0.3-0.1,0.6,0,0.9c0.2,0.4,0.3,0.5,0.1,0.6c-0.1,0-0.1,0.1,0.1,0.4c0,0.2,0.1,0.3,0.3,0.3c0.2,0,0.3,0,0.3,0.2
		c0,0.1,0,0.2-0.2,0.1c-0.1-0.1-0.2-0.1-0.1,0.1c0,0.1,0.1,0.2,0.3,0.2c0.2,0,0.2,0,0,0.1c-0.1,0-0.2,0.1-0.2,0.2
		c0.1,0.1,0.1,0.2,0.1,0.4c0,0.2,0.1,0.3,0.1,0.5c0.1,0.3,0.1,0.5,0.1,0.5c0,0.1-0.1,0.1-0.2,0.1c-0.1,0-0.2,0-0.2,0.1
		c0,0.1,0.1,0.2,0.3,0.2c0.1,0,0,0.1-0.3,0.1c-0.3-0.1-0.4,0-0.4,0.1c0,0.1,0,0.4,0.1,1c0.2,0.7,0.3,1.1,0.4,1
		c0.1,0,0.2,0.1,0.2,0.4c0.1,0.4,0,0.6-0.1,0.6c-0.1,0-0.1,0.1-0.1,0.3c0,0.2,0.1,0.3,0.2,0.3c0.1,0,0.3,0.4,0.5,1.2
		c0.1,0.3,0.2,0.6,0.3,0.9c0.1,0.3,0.2,0.4,0.3,0.5c0.1,0.1,0.1,0.2,0,0.2c-0.1,0-0.3,0-0.5-0.2c-0.2-0.2-0.3-0.4-0.3-0.6
		c0,0-0.1,0-0.1,0.1c-0.2,0.3,0,0.7,0.7,1.3c0.5,0.4,0.6,0.6,0.4,0.6c-0.1,0-0.3,0-0.5-0.2c-0.2-0.2-0.3-0.1-0.1,0.2
		c0,0.3,0.1,0.6,0.3,0.8c0,0.3,0.1,0.4,0.2,0.4c0.1,0,0.2-0.2,0.1-0.5c0-0.2,0-0.4,0.1-0.4c0.1,0,0.2,0.1,0.3,0.3
		c0.1,0.3,0.2,0.6,0.2,0.8s-0.2,0.3-0.4,0.2c-0.2-0.1-0.3,0-0.3,0.1c0,0,0.1,0.1,0.4,0.2c0.3,0,0.5,0.1,0.4,0.3
		c-0.1,0.3,0,0.4,0.3,0.3c0.3,0.1,0.4,0.2,0.3,0.3c0,0.1-0.2,0.2-0.4,0.2c-0.3,0-0.4-0.1-0.5-0.4l-0.1-0.4l-0.1,0.5
		c0,0.3,0,0.5,0,0.6c0,0.1-0.1,0.2-0.4,0.2c-0.2,0-0.4,0.1-0.4,0.3c0,0.1-0.1,0.2-0.3,0c-0.2-0.2-0.3-0.2-0.3,0
		c0,0.1-0.2,0.3-0.4,0.3c-0.2,0.1-0.5,0-0.7-0.1c-0.3-0.1-0.5-0.4-0.7-0.9s-0.2-0.7,0-0.7c0.3,0.1,0.3,0,0.2-0.2
		c-0.2-0.6-0.3-0.9-0.4-1.1c-0.1-0.2-0.2-0.2-0.2-0.2c-0.1,0.2-0.2,0.2-0.2,0c0-0.1,0-0.2,0.2-0.3c0-0.1,0.1-0.1,0-0.2
		c0-0.2-0.1-0.5-0.4-1c-0.1-0.5-0.2-0.8-0.3-1c-0.1-0.2-0.1-0.2-0.1,0.1c0,0.1,0,0.2-0.1,0.2c-0.1,0-0.2-0.2-0.2-0.6l-0.1-0.4l0-0.2
		c0,0-0.1-0.1-0.2-0.3c-0.1-0.2-0.2-0.4-0.3-0.7c-0.1-0.3-0.2-0.5-0.3-0.8c-0.1-0.2-0.1-0.4,0-0.4c0-0.1,0-0.2-0.1-0.3
		c-0.1-0.1-0.1-0.3-0.3-0.6c-0.1-0.3-0.2-0.6-0.3-0.9c-0.2-0.5-0.3-0.8-0.3-1.1c-0.1-0.3-0.1-0.6-0.2-0.9c-0.1-0.3-0.2-0.6-0.3-1
		c-0.1-0.4-0.3-0.9-0.6-1.6c-0.3-0.7-0.5-1.6-0.9-2.6c-0.3-1-0.7-2-1-2.9c-0.3-0.9-0.6-1.7-0.8-2.4c-0.2-0.7-0.4-1.1-0.4-1.2
		c-0.1-0.1-0.6,0-1.7,0.5c-0.4,0.2-0.8,0.4-1.2,0.6c-0.4,0.2-0.7,0.3-0.8,0.4c-0.1,0.1-0.3,0.2-0.6,0.3c-0.3,0.1-0.5,0.2-0.7,0.4
		c-0.2,0.1-0.7,0.4-1.5,0.7c-0.8,0.3-1.6,0.7-2.4,1c-1.1,0.5-1.9,0.9-2.5,1.2c-0.6,0.3-1,0.5-1.2,0.6c-0.2,0.1-0.4,0.3-0.5,0.4
		c-0.1,0.1-0.1,0.3-0.2,0.5c-0.2,0.5-0.2,0.9-0.2,1c0,0.1-0.1,0.5-0.3,1c-0.2,0.5-0.4,0.8-0.5,0.8c-0.1-0.1-0.1,0,0,0.1
		c0.1,0.2,0.1,0.3,0,0.3c-0.1,0-0.2-0.1-0.4-0.2c-0.1-0.1-0.3-0.2-0.4-0.1c-0.2,0.1-0.2,0.2-0.1,0.3c0.1,0.1,0.1,0.1,0,0.1
		c-0.1,0-0.2,0.1-0.3,0.4c-0.1,0.3-0.1,0.5-0.1,0.6c0.1,0.1,0.1,0.1-0.1,0.2c-0.1,0-0.2,0.1-0.2,0.4c0,0.2,0,0.4,0,0.6
		c0.1,0.1,0,0.1-0.2,0.2c0,0-0.1,0.1,0,0.3c0.1,0.1,0.1,0.3-0.1,0.4c-0.1,0-0.2,0-0.2,0.1c0,0.1,0,0.1,0.1,0.1c0,0.1,0,0.2-0.1,0.2
		c-0.1,0-0.2,0.1,0,0.2c0.1,0.1,0.1,0.2,0,0.3c-0.1,0.1-0.2,0.1-0.4,0.1c-0.1,0-0.2-0.3-0.1-0.9c0.1-0.4,0.1-0.8,0.1-0.9
		c0-0.2-0.1,0-0.2,0.4c-0.1,0.3-0.2,0.5-0.3,0.6c-0.2,0.1-0.2,0.1-0.3-0.2c0-0.1,0.1-0.2,0.2-0.2c0.1,0,0.2-0.1,0.1-0.2
		c-0.1-0.1,0-0.3,0.1-0.6c0.2-0.3,0.4-0.9,0.3-1.6c0,0,0-0.2,0.1-0.4c0.1-0.2,0.1-0.4,0.2-0.7c0.1-0.3,0.1-0.5,0.2-0.7
		c0.1-0.2,0.1-0.4,0.1-0.5c0-0.1,0-0.2,0.1-0.2c0.1,0,0.1-0.1,0.1-0.3c0-0.3-0.3-0.3-0.7,0c-0.3,0.2-0.4,0.4-0.3,0.5
		c0,0.1-0.1,0.2-0.3,0.2c-0.2,0-0.3-0.1-0.3-0.3c0.1-0.3,0-0.3-0.1-0.1c-0.1,0.1-0.1,0.4,0.1,0.7c0.3,0.5,0.3,0.8-0.1,0.8
		c-0.2,0-0.3,0.2-0.3,0.5c0.1,0.4,0,0.6-0.1,0.7c0,0-0.1,0.1-0.2,0.3c-0.1,0.2-0.2,0.5-0.3,0.7c-0.1,0.3-0.2,0.5-0.3,0.8
		c-0.1,0.3-0.1,0.5-0.1,0.6c0,0.1-0.1,0.3-0.4,0.6c-0.4,0.2-0.4,0.4-0.2,0.3c0.1,0,0.1,0-0.1,0.2c-0.1,0.2,0,0.2,0.2,0.2
		c0.2,0,0.4,0,0.4,0c0,0-0.1,0.1-0.2,0.2c-0.1,0.1-0.3,0.1-0.5,0.1c-0.2-0.1-0.2,0,0,0.4c0.1,0.1,0.1,0.3,0.1,0.4s0,0.2-0.1,0.2
		c-0.1,0.1-0.1,0.2-0.1,0.4c0.1,0.1,0.1,0.1-0.1,0.2c-0.2,0-0.3,0.2-0.2,0.6c0.1,0.4,0,0.5-0.1,0.4c-0.1-0.1-0.2-0.1-0.3,0.2
		c-0.2,0.2-0.1,0.3,0.1,0.3c0.1,0,0.2,0,0.2,0c0,0,0,0,0,0c-0.2,0.2-0.3,0.4-0.3,0.6c0,0.2-0.1,0.4-0.2,0.4
		c-0.2-0.1-0.2-0.1-0.1,0.1c0.1,0.1,0.1,0.3,0,0.5c-0.1,0.2-0.2,0.4-0.4,0.4s-0.2,0-0.2,0c0,0,0-0.2,0.2-0.4
		c0.1-0.1,0.1-0.2,0.2-0.4c0-0.1,0-0.2-0.1-0.2c0-0.2,0-0.3,0.1-0.4c0-0.1,0-0.3-0.2-0.4c-0.2-0.2-0.3-0.1-0.3,0
		c0.1,0.5,0,0.9-0.1,1.1c-0.1,0-0.1,0.2-0.1,0.4c0,0.1,0,0.3-0.2,0.5c-0.3,0.1-0.3,0-0.2-0.3c0.1-0.3,0-0.3-0.2-0.1
		c-0.1,0-0.2,0-0.2,0.1c-0.1,0-0.1,0.1-0.2,0.1c0,0,0,0.1,0.1,0.1c0,0.2,0,0.3-0.2,0.4c-0.2,0.1-0.3,0.2-0.2,0.3
		c0,0.1,0.1,0.1,0.3,0.1c0.2,0,0.3-0.1,0.2-0.3c0-0.2,0-0.3,0.2-0.2c0.1,0,0.2,0.1,0.3,0.3c-0.1,0.3,0.1,0.4,0.3,0.3
		c0.3,0,0.5,0,0.6,0c0.1,0,0.3,0.1,0.5,0.2c0.2,0.2,0.3,0.4,0.2,0.5c-0.1,0.1-0.5,0.3-1.2,0.4s-1.5,0.3-2.4,0.3c-0.5,0-0.9,0-1.1,0
		c-0.2,0-0.3-0.1-0.4-0.2c-0.1-0.2-0.2-0.3-0.3-0.3c-0.1,0-0.2-0.1-0.2-0.3c0-0.2,0-0.4,0-0.7c0.1-0.2,0.1-0.2,0.2-0.1
		c0.2,0.1,0.3,0,0.3-0.4c0.1-0.3,0.1-0.4,0.1-0.4c0,0-0.1,0-0.2,0.1c-0.1,0.1-0.2,0.2-0.2,0.2c0,0,0-0.1,0.1-0.4
		c0.1-0.3,0.3-0.5,0.4-0.5c0.2,0,0.2-0.2,0.1-0.4c-0.1-0.2,0-0.9,0.2-2c0.2-1.1,0.5-2.2,0.9-3.4c0.1-0.3,0.1-0.5,0.2-0.6
		c0.1-0.2,0.1-0.3,0.1-0.3c0.2-0.7,0.3-1.2,0.4-1.6c0.1-0.4,0.2-0.9,0.4-1.4c0.1-0.5,0.3-1,0.4-1.4c0.1-0.2,0.2-0.4,0.3-0.8
		c0.1-0.4,0.2-0.8,0.3-1.2c0.1-0.4,0.2-0.8,0.3-1.2c0.1-0.4,0.2-0.6,0.3-0.8c0.1-0.4,0.2-0.6,0.1-0.8c-0.1-0.2-0.3-0.4-0.6-0.7
		c-0.4-0.4-0.7-0.8-1-1.2c-0.3-0.4-0.4-0.7-0.4-0.9c0-0.2,0.2-0.5,0.4-0.6c0.3-0.2,0.8-0.5,1.6-0.8c0.6-0.3,1-0.5,1.2-0.6
		c0.2-0.1,0.4-0.4,0.5-0.6c0.2-0.4,0.3-0.7,0.3-0.8c0-0.1,0.1-0.4,0.3-1c0.2-0.6,0.5-1.6,1-3.3c0-0.3,0.2-0.9,0.4-1.5
		c0.2-0.7,0.4-1.4,0.6-2.1c1.9-6.8,3.9-13.1,6.2-19.1l0.4-1.2l1.4-0.1c0.4-0.1,0.8-0.1,1.2-0.1c0.4,0,0.7,0.1,0.9,0.1
		c0.4,0.2,0.7,0.2,0.7,0c0.1-0.2,0.3-0.2,0.4-0.2c0.1,0,0.3,0.1,0.3,0.2c0.1,0.2,0.2,0.3,0.4,0.3c0.2,0,0.3-0.1,0.4-0.3
		c0-0.1,0.2-0.3,0.6-0.3c0.4-0.1,0.7,0,0.9,0.2c0.2,0.2,0.4,0.2,0.7,0.1c0.2-0.1,0.7,0.4,1.4,1.5c0.7,1.1,1.5,2.7,2.3,4.7
		c0.2,0.5,0.6,1.2,1,2.3c0.5,1.1,1,2.2,1.5,3.4c0.5,1.2,1,2.3,1.4,3.4c0.4,1.1,0.7,1.8,0.9,2.2c0.1,0.4,0.3,0.7,0.4,1
		c0.1,0.3,0.2,0.4,0.2,0.5c0,0,0.1,0.1,0.3,0c0.2,0,0.3-0.1,0.5-0.2c0.3-0.1,0.5-0.2,0.7-0.2c0.1,0,0.3,0.1,0.5,0.2
		c0.2,0.1,0.3,0.2,0.3,0.2c0,0,0,0-0.1-0.1c-0.1-0.1-0.2-0.2-0.1-0.3c0-0.1,0.2-0.1,0.5-0.3c0.7-0.2,1.2,0,1.6,0.9
		c0.1,0.3,0.3,0.5,0.4,0.6c0.1,0,0.3,0.1,0.4,0.3s0.1,0.3-0.1,0.3c-0.1,0,0,0.1,0.2,0.3c0.2,0.1,0.3,0.2,0.3,0.4
		c0,0.2-0.1,0.3-0.3,0.2c-0.2-0.1-0.2-0.1-0.2,0c0,0.1-0.1,0.2-0.5,0.4c-0.3,0-0.5,0.1-0.7,0.2c0,0.1-0.1,0.2-0.1,0.2
		c0,0-0.1,0-0.1-0.1l-0.1,0c-0.1,0-0.2,0-0.2,0.1c-0.1,0-0.2,0.1-0.2,0.1c-0.2,0.1-0.4,0.2-0.4,0.3c-0.1,0.1-0.1,0.2-0.1,0.3
		c0.1,0.3,0,0.4-0.2,0.5c-0.4,0.1-0.5,0.4-0.3,1.1c0.1,0.4,0.3,0.7,0.6,0.8c0.3,0,0.3,0,0.2,0.3c-0.2,0.1-0.2,0.1,0,0.1
		c0.2-0.1,0.4,0,0.6,0.1c0.1,0.1,0.2,0.1,0.3,0.1c0.1,0,0.1,0,0.1-0.1c0.1-0.1,0.1-0.2-0.1-0.3c-0.3-0.1-0.3-0.2-0.1-0.4
		c0-0.1,0.2-0.1,0.4,0.1c0.1,0.1,0.1,0.2,0.2,0.2c0.1,0,0.1,0,0.1-0.1s0.2-0.2,0.6-0.2c0.4,0,0.6,0,0.7-0.1c0.1-0.1-0.1-0.2-0.4-0.3
		c-0.1,0-0.2-0.1-0.3-0.3c0.1-0.1,0.2-0.2,0.4-0.1c0.2,0,0.3,0.1,0.3,0.3c0,0.1,0.1,0.1,0.4,0.1c0.2,0,0.4,0,0.6,0.1
		c0.3,0-0.3,0.4-1.8,0.9c0,0.1-0.1,0.1-0.2,0.1c0,0-0.1,0-0.1,0.1l-0.1,0.1l-0.1,0c0,0.1-0.1,0.1-0.3,0.1c0,0.1-0.1,0.2-0.3,0.2
		c-0.2,0-0.4,0.1-0.5,0.2c-0.1,0.1-0.2,0.3-0.1,0.6c0,0.3,0.1,0.7,0.3,1.3c0.2,0.6,0.4,1.3,0.7,2.3c0.2,0.7,0.4,1.3,0.6,1.7
		c0.1,0.4,0.2,0.8,0.3,1.1c0.1,0.3,0.1,0.6,0.2,0.8c0.1,0.2,0.1,0.5,0.2,0.7c0.1,0.2,0.2,0.5,0.3,0.9c0.1,0.4,0.2,0.7,0.3,1
		c0.1,0.3,0.2,0.6,0.3,1c0.1,0.4,0.2,0.8,0.3,1.1c0.1,0.8,0.2,1.3,0.3,1.3c0.1,0.2,0.2,0.5,0.3,0.9c0,0.2,0.1,0.5,0.1,0.6
		c0.1,0.2,0.1,0.3,0.1,0.4C-170.8,468.9-170.7,469.1-170.9,469.1z M-205.7,473.3c0.1,0,0.1-0.1,0.1-0.2c0,0,0-0.1,0-0.1
		c0,0,0,0,0-0.1l0-0.1c-0.1,0-0.2,0.1-0.2,0.2C-205.9,473.3-205.8,473.4-205.7,473.3z M-204.2,471.5c0.1-0.2,0.1-0.2-0.2-0.2
		c-0.1,0-0.2,0.1-0.2,0.2c0,0,0,0.2-0.1,0.5c-0.1,0.3-0.2,0.6-0.3,0.9c-0.2,0.7-0.4,1.1-0.4,1.3c0,0.1,0.1,0.2,0.3,0.1
		c0.2,0,0.3-0.1,0.3-0.1c0,0,0-0.2-0.1-0.4c-0.1-0.3-0.1-0.6,0.1-0.7c0.2-0.2,0.2-0.3,0.1-0.3c-0.1,0-0.1,0,0.1-0.2
		c0.1-0.1,0.2-0.3,0.2-0.5c0-0.1,0-0.2,0-0.3C-204.2,471.7-204.1,471.6-204.2,471.5z M-203,477.9c0.1-0.2,0.3-0.1,0.5,0.2
		c0.2,0.2,0.3,0.4,0.3,0.5c0,0.1-0.1,0.3-0.3,0.5l-0.4,0.4l-0.1-0.4c-0.1-0.3-0.3-0.4-0.5-0.4c-0.3,0-0.4,0-0.4-0.2
		c0-0.2,0.1-0.3,0.4-0.3C-203.1,478.1-202.9,478-203,477.9z M-203,477.1c0,0.5-0.1,0.7-0.4,0.6c-0.1-0.1-0.1-0.2-0.1-0.5
		c0.1-0.2,0.1-0.4,0.2-0.4C-203.1,476.7-203,476.9-203,477.1z M-204.1,471.1c0.1,0,0.2-0.1,0.2-0.2c0-0.1-0.1-0.2-0.2-0.2
		c0,0-0.1,0.1-0.3,0.3C-204.4,471.1-204.3,471.1-204.1,471.1z M-204.1,470.4c0.1,0.1,0.2,0.1,0.2,0.1c0,0,0.1-0.2,0.1-0.5
		c0-0.2,0-0.4,0-0.4c0,0-0.1,0.1-0.1,0.2C-204.1,470.2-204.2,470.4-204.1,470.4z M-202.8,475.2c0.1-0.1,0.1-0.2,0-0.3
		c-0.1,0-0.1-0.1-0.1-0.1c0,0,0.1,0,0.1,0.1c0.2,0,0.1,0.3-0.2,1c-0.1,0.2-0.2,0.2-0.2-0.1c0-0.1,0.1-0.1,0.1-0.2
		c0-0.1,0-0.1,0.1-0.2C-202.8,475.3-202.8,475.2-202.8,475.2z M-203.5,470.8c0.1,0,0.1-0.1,0.1-0.2c0-0.1,0-0.1-0.1-0.1
		c0,0-0.1,0.1-0.2,0.2C-203.7,470.8-203.6,470.9-203.5,470.8z M-202,476.4c0,0.1-0.1,0.2-0.2,0.2c-0.2,0-0.3,0-0.4-0.1
		c-0.1,0-0.1-0.1-0.1-0.1C-202.3,476.2-202,476.2-202,476.4z M-203.4,468.6C-203.4,468.6-203.3,468.6-203.4,468.6
		c-0.1-0.1-0.3-0.1-0.3,0c-0.1,0-0.1,0-0.1,0.1c0,0,0.1,0,0.2,0L-203.4,468.6z M-202.3,474c-0.1,0.2-0.2,0.3-0.2,0.4
		c-0.1,0.1-0.1,0.1-0.1,0c0,0,0.1-0.2,0.2-0.4C-202.3,473.8-202.3,473.9-202.3,474z M-201.7,478.2c0.2,0,0.3,0.1,0.3,0.2
		c0,0.3-0.1,0.4-0.4,0.3c-0.1-0.1-0.2-0.2-0.2-0.3C-201.9,478.3-201.8,478.2-201.7,478.2z M-201.5,479.1c0.2,0,0.2,0,0.1,0.2
		c0,0.1-0.1,0.2-0.3,0.2c-0.1,0-0.1,0,0-0.1C-201.7,479.2-201.6,479.2-201.5,479.1z M-202.2,475.1c0-0.1,0.1-0.2,0.2-0.2l0.3,0.1
		c0,0-0.1,0.1-0.3,0.3C-202.1,475.4-202.2,475.3-202.2,475.1z M-201,471.7c0.3-0.1,0.2,0.2-0.1,1c-0.3,0.6-0.4,1.1-0.5,1.7
		c0,0.4-0.1,0.5-0.3,0.3c-0.1-0.1-0.1-0.3-0.1-0.7c0-0.3,0-0.5-0.1-0.5c-0.1,0.1-0.1,0-0.2-0.3c0-0.3,0-0.4,0.1-0.4
		c0.1,0,0.1-0.1,0.1-0.3c0-0.2,0.1-0.3,0.3-0.3c0.3,0.1,0.4,0,0.3-0.1C-201.4,471.9-201.3,471.8-201,471.7z M-201.8,473
		c0.1,0,0.1-0.1,0.1-0.3c0-0.2-0.1-0.3-0.1-0.3c0,0,0,0.1-0.2,0.3C-201.9,472.9-201.9,473-201.8,473z M-201.5,471.1
		c-0.1,0-0.2-0.1-0.2-0.2c0-0.1,0-0.2,0.1-0.2c0.1,0,0.2,0,0.2,0.2C-201.3,471-201.4,471.1-201.5,471.1z M-200.3,468.9
		c0.2-0.2,0.2-0.3,0.2-0.4c-0.1-0.1-0.2-0.1-0.4,0c-0.2,0.1-0.2,0.2-0.2,0.4C-200.7,469.1-200.6,469.1-200.3,468.9z M-200.2,467.8
		c0-0.1,0-0.2-0.2-0.2c-0.1,0-0.2,0.1-0.2,0.2c0.1,0.1,0.1,0.1,0.2,0.1l0.1,0L-200.2,467.8z M-199.3,469.2c-0.1-0.4,0-0.8,0.3-1.2
		c0.2-0.4,0.4-0.6,0.7-0.5c0,0.1,0,0.4-0.1,0.9c-0.1,0.5-0.2,0.7-0.3,0.8c-0.1,0-0.2,0.1-0.2,0.2c0,0.1-0.1,0.3-0.1,0.4
		c-0.1,0.3-0.2,0.5-0.3,0.6c-0.1,0.2-0.2,0.1-0.2-0.1c0-0.1,0-0.2,0.2-0.4C-199.3,469.7-199.3,469.5-199.3,469.2z M-198.8,466.5
		c0.1,0,0.2-0.1,0.1-0.2c-0.1-0.1-0.2-0.1-0.2-0.1c-0.1,0-0.2,0.1-0.2,0.2C-199.1,466.5-199,466.6-198.8,466.5z M-198.7,465.8
		c0.2-0.1,0.3-0.3,0.3-0.5c0-0.2,0-0.3-0.2-0.2c-0.1,0.1-0.2,0.2-0.2,0.3c0,0.2,0,0.3-0.2,0.4c-0.1,0.2-0.2,0.2-0.1,0.2
		C-198.9,466-198.8,465.9-198.7,465.8z M-198.4,464.8c0.2,0,0.3-0.2,0.2-0.5c0-0.2-0.1-0.3-0.3-0.3c-0.1,0.1-0.2,0.3-0.1,0.5
		C-198.6,464.7-198.5,464.8-198.4,464.8z M-196.6,452c0.1-0.3,0-0.3-0.2-0.2c-0.1,0.1-0.1,0.1-0.2-0.1c0-0.2-0.1-0.1-0.3,0.1
		c-0.2,0.3-0.2,0.5-0.2,0.6c0,0.2,0.2,0.3,0.4,0.1S-196.6,452.2-196.6,452z M-196.4,451.4C-196.4,451.3-196.5,451.3-196.4,451.4
		c-0.1-0.1-0.2-0.2-0.3-0.3c-0.1,0-0.2,0.1-0.2,0.2c0,0.1,0.1,0.1,0.2,0.1L-196.4,451.4z M-196.4,449.3l-0.2,0.5
		c-0.2,0.3-0.2,0.5,0,0.7c0.1,0.1,0.2,0.1,0.2,0.1l0.1,0.1l0-0.2c0-0.1,0-0.2,0-0.3c0-0.1,0-0.2,0-0.3L-196.4,449.3z M-195.7,447.5
		c0.1-0.3,0.2-0.6,0.2-0.9l0.1-0.4l-0.4,0.6c-0.1,0.2-0.1,0.4-0.2,0.6c-0.1,0.2-0.1,0.3-0.1,0.5c0,0.1,0,0.2,0,0.3
		c0,0.1-0.1,0.2-0.1,0.2c-0.2,0.2-0.2,0.2,0,0.2c0.2,0,0.3-0.1,0.2-0.3c0-0.1,0.1-0.2,0.1-0.3C-195.8,447.8-195.8,447.7-195.7,447.5
		z M-194.4,450.9c0-0.3-0.1-0.4-0.2-0.3c-0.1,0.1-0.2,0.2-0.2,0.4c0,0.2,0.1,0.3,0.1,0.3C-194.6,451.2-194.5,451.1-194.4,450.9z
		 M-194.4,450.3c0.2-0.1,0.3-0.2,0.2-0.3l-0.1,0c0,0-0.1,0.1-0.2,0.2C-194.6,450.3-194.6,450.3-194.4,450.3z M-194.3,449.6
		c0,0.1,0,0.1,0.2,0c0.2-0.1,0.3-0.2,0.3-0.3c0-0.1-0.1-0.2-0.2-0.1C-194.2,449.3-194.2,449.4-194.3,449.6z M-187.4,448.8
		c0-0.2-0.2-0.6-0.4-1.3c-0.1-0.3-0.3-0.9-0.6-1.7c-0.3-0.8-0.6-1.6-0.8-2.4c-0.3-0.8-0.5-1.5-0.7-2.1c-0.2-0.6-0.3-0.9-0.4-1
		c-0.1-0.1-0.2,0-0.3,0.5c-0.2,0.5-0.4,1.3-0.8,2.7c-0.1,0.4-0.2,0.8-0.5,1.4c-0.2,0.6-0.4,1.2-0.6,1.7c-0.2,0.6-0.3,1-0.4,1.4
		c-0.1,0.4-0.2,0.6-0.2,0.6c0,0,0,0.2-0.1,0.5c-0.1,0.3-0.2,0.6-0.2,0.9c-0.3,0.7-0.4,1.2-0.4,1.4c0,0.1,0.2,0.1,0.5-0.1
		c0.1-0.1,0.3-0.1,0.4-0.2c0.1,0,0.3-0.1,0.3-0.2c1.3-0.5,2.5-1,3.5-1.4C-188,449.1-187.5,448.9-187.4,448.8z M-193.7,447.7
		c-0.1,0.1-0.1,0.2-0.1,0.2c0.1,0,0.2,0.1,0.1,0.3c0,0.2,0.1,0.3,0.2,0.3c0.2,0,0.2-0.1,0.1-0.2c-0.1-0.1-0.1-0.2,0-0.4
		c0.1-0.1,0.1-0.2,0-0.2C-193.4,447.5-193.5,447.6-193.7,447.7z M-187.7,458c0-0.1-0.1-0.1-0.3-0.1c-0.2,0.1-0.3,0.2-0.3,0.3
		c0,0.1,0.1,0.1,0.3,0C-187.8,458.2-187.7,458.1-187.7,458z M-187.7,455.3C-187.5,455.4-187.5,455.4-187.7,455.3
		c-0.2-0.3-0.3-0.4-0.5-0.4c-0.1,0-0.2,0.1,0,0.4c0,0.2,0.1,0.3,0.2,0.1C-188.1,455.1-188,455.1-187.7,455.3z M-184.1,438.6
		c0-0.1,0-0.2,0-0.4c-0.1-0.3-0.2-0.2-0.1,0.1C-184.2,438.4-184.2,438.5-184.1,438.6C-184.1,438.7-184.1,438.7-184.1,438.6z
		 M-178.7,472.6c0,0,0.1-0.1,0-0.2c0-0.1-0.1-0.1-0.2-0.1c-0.1,0-0.1,0.1-0.1,0.2C-178.9,472.6-178.8,472.6-178.7,472.6z
		 M-177.3,478.4c0-0.3,0-0.3,0.1-0.2c0.1,0.1,0.1,0.2,0.1,0.4C-177.2,478.7-177.3,478.6-177.3,478.4z M-182.1,444.4
		c0.1,0.3,0.2,0.5,0.3,0.5c0.1,0,0.1-0.1,0.1-0.4c0-0.2-0.1-0.4-0.3-0.5C-182.1,443.8-182.1,444-182.1,444.4z M-175.9,481.4
		c0.1,0,0.1-0.1,0-0.4c-0.1-0.3-0.2-0.4-0.3-0.4l0.1,0.4C-176.1,481.3-176,481.4-175.9,481.4z M-175.7,473.1
		c0.1-0.1,0.1-0.2-0.1-0.1s-0.2,0.1-0.2,0.2c0,0.1,0.1,0.2,0.2,0.2c0,0,0.1,0,0.1-0.1L-175.7,473.1z M-177,464.7
		c-0.1,0-0.1,0.1,0,0.3c0,0.2,0.1,0.3,0.1,0.3c0.1,0,0.1-0.1,0.1-0.2C-176.8,464.8-176.9,464.6-177,464.7z M-175.8,468.1
		c-0.1-0.2-0.2-0.4-0.2-0.4c-0.1,0-0.1,0.1-0.1,0.3c0,0.2,0.1,0.3,0.3,0.3C-175.8,468.4-175.8,468.3-175.8,468.1z M-174.9,474
		c-0.1,0-0.1,0-0.3,0.1c-0.1,0.2-0.1,0.2,0.1,0.1C-174.9,474.1-174.8,474-174.9,474z M-174.7,475.3c0.1-0.3,0.1-0.5,0-0.7
		c-0.1-0.2-0.2-0.2-0.3-0.1c-0.1,0.2,0,0.4,0.1,0.6C-174.9,475.5-174.8,475.6-174.7,475.3z M-176.7,461.6c-0.1,0-0.1,0.1-0.1,0.2
		c0,0.1,0.1,0.2,0.2,0.2c0.1,0,0.1-0.1,0.1-0.2C-176.6,461.6-176.6,461.6-176.7,461.6z M-175.5,469.8c0.1,0,0.1-0.1,0.1-0.2
		c0-0.2-0.1-0.4-0.2-0.4c-0.1,0-0.1,0.1-0.1,0.3C-175.7,469.7-175.6,469.8-175.5,469.8z M-174.3,470.6c0,0.1,0,0.2,0,0.2
		c0,0,0,0.1,0,0.1l0,0.1c0,0,0-0.1-0.1-0.1c-0.1,0-0.2,0-0.3,0c-0.2,0-0.3-0.1-0.2-0.3c0.1-0.2,0.2-0.2,0.2-0.1
		c0,0.2,0.1,0.1,0.1-0.2C-174.5,470.2-174.4,470.3-174.3,470.6z M-174.4,472.4c0.4-0.4,0.6-0.4,0.6-0.1c0,0.1-0.1,0.2-0.3,0.1
		c-0.3-0.1-0.4,0-0.2,0.1c0.1,0.1,0,0.2-0.1,0.2c-0.1,0-0.2,0-0.2,0C-174.5,472.7-174.5,472.6-174.4,472.4z M-174.6,471.5
		c0-0.2,0-0.3,0.1-0.3c0,0,0,0.1,0.1,0.1c0,0,0.1,0.1,0.1,0.2c0,0,0,0.1-0.1,0.2l0,0.1C-174.5,471.8-174.6,471.7-174.6,471.5z
		 M-173.9,473.9c0.1,0,0.2,0.1,0.3,0.3c0,0.3,0,0.4-0.1,0.4c0,0-0.1,0-0.1-0.1c0,0,0-0.1-0.1-0.1c0,0-0.1-0.1-0.1-0.2
		C-173.9,474-173.9,473.9-173.9,473.9z M-173.4,475.9c0-0.1,0-0.3,0-0.3c0-0.1,0-0.1,0.1,0l0.1,0.6
		C-173.2,476.4-173.3,476.3-173.4,475.9z M-175.7,455.8c-0.2,0-0.2,0.1,0,0.3c0.2,0.2,0.3,0.3,0.4,0.3c0.1,0,0.1-0.1,0-0.4
		c-0.1-0.4-0.2-0.7-0.3-0.9c-0.1-0.2-0.2-0.2-0.3,0c-0.1,0.2,0,0.3,0.1,0.4C-175.6,455.6-175.6,455.7-175.7,455.8z M-174.2,464.6
		c0.1,0.2,0.2,0.3,0.3,0.3c0.1,0,0-0.1-0.1-0.4c0-0.3-0.2-0.4-0.3-0.4C-174.5,464.2-174.5,464.3-174.2,464.6z M-176.2,448.8
		c-0.1-0.3-0.2-0.2-0.1,0.1c0,0.1,0,0.2,0.1,0.2c0,0.1,0,0.1,0,0c0.1,0,0.1-0.1,0.1-0.1C-176.1,448.9-176.1,448.9-176.2,448.8z
		 M-175,457.6c0.1,0.4,0.1,0.6,0.2,0.6c0.1,0,0.1-0.2,0.1-0.6c0-0.3-0.1-0.5-0.2-0.5C-175,457.1-175.1,457.3-175,457.6z
		 M-172.9,468.7c0.2,0.2,0.1,0.3-0.1,0.3c-0.1,0-0.2-0.1-0.3-0.3l0-0.1c0,0,0-0.1,0.1-0.1C-173,468.5-172.9,468.6-172.9,468.7z
		 M-174.7,458.5c0,0.1,0,0.1,0.1,0.1c0.1,0,0.2-0.1,0.2-0.2c0-0.1-0.1-0.2-0.2-0.2c0,0-0.1,0-0.1,0.1
		C-174.7,458.4-174.7,458.5-174.7,458.5z M-174.6,459.2c0.1,0.2,0.2,0.3,0.3,0.3c0.1,0,0.1-0.1-0.1-0.4c0-0.2-0.1-0.3-0.3-0.3
		C-174.6,458.9-174.6,459-174.6,459.2z M-173.4,463.1c0.1,0,0.2-0.3,0-0.7c-0.2-0.5-0.3-0.7-0.5-0.8c-0.3-0.1-0.3-0.2,0-0.2
		c0.1,0,0.1-0.1,0.1-0.4c0-0.2-0.1-0.3-0.2-0.3c-0.1,0-0.1,0-0.1,0.2c0,0.1,0,0.3,0,0.7c-0.1,0.3-0.1,0.4,0.1,0.3
		c0.1-0.1,0.2-0.1,0.1,0.1c0,0.2,0.1,0.4,0.2,0.5c0.1,0.1,0.2,0.2,0.2,0.3c0,0.1,0,0.2,0,0.2C-173.5,463-173.5,463.1-173.4,463.1z
		 M-174,460.1c0-0.3-0.1-0.4-0.2-0.4c-0.2,0-0.2,0.3,0.1,0.7c0,0.1,0,0.1,0.1,0C-174,460.3-174,460.2-174,460.1z M-172.8,469.4
		c0-0.1,0-0.2,0.1-0.1c0.1,0,0.2,0.1,0.2,0.2c0,0,0,0.1-0.1,0.1C-172.8,469.6-172.8,469.5-172.8,469.4z M-172.7,470.6
		c-0.1-0.6,0-0.6,0.2-0.2c0.1,0.3,0.1,0.4,0,0.5C-172.5,471-172.6,470.9-172.7,470.6z M-174.6,453.1c0.3-0.3,0.5-0.4,0.7-0.2
		c0.2,0.1,0.2,0.2-0.2,0.3c-0.4,0.2-0.6,0.3-0.7,0.2C-174.9,453.3-174.8,453.2-174.6,453.1z M-175.1,448.8c0-0.2,0.1-0.2,0.4-0.1
		c0.1,0.1,0.2,0.1,0.3,0.1c0.1,0,0.1,0,0.1,0.1c0,0-0.1,0.1-0.3,0.1C-174.9,449-175.1,448.9-175.1,448.8z M-169.8,477
		c0,0.1,0,0.2-0.1,0.1c-0.1-0.1-0.2-0.2-0.2-0.4c0-0.2,0-0.2,0.2-0.1C-169.9,476.8-169.8,476.9-169.8,477z M-173.9,448.4
		c0.2-0.1,0.3-0.1,0.2,0.2c-0.1,0.2-0.2,0.3-0.3,0.4c-0.1,0-0.1,0-0.1-0.2C-174.1,448.6-174,448.5-173.9,448.4z M-170.9,469.5
		c0.1,0,0.2,0.2,0.3,0.5c0.1,0.3,0.1,0.5,0,0.5l-0.1-0.1c0,0-0.1-0.2-0.1-0.5C-171,469.6-171,469.5-170.9,469.5z M-169.8,477.8
		C-169.8,477.6-169.8,477.6-169.8,477.8c0.2,0,0.2,0.1,0.1,0.2C-169.7,478.1-169.8,478-169.8,477.8z M-172.8,452
		C-172.6,451.8-172.6,451.8-172.8,452c-0.2,0.4-0.3,0.5-0.5,0.2c-0.1,0-0.1-0.1-0.1-0.1c0,0,0,0,0.1,0
		C-173.1,452.2-172.9,452.2-172.8,452z M-169.5,478.7c-0.1-0.4,0-0.5,0.2-0.2c0.1,0.1,0.2,0.2,0.1,0.2c0,0.1,0,0.1-0.1,0.1
		C-169.4,479-169.5,478.9-169.5,478.7z M-173.2,448.2c0.2-0.1,0.3-0.2,0.4-0.2c0,0,0.1,0.1,0.1,0.3c0,0.2,0,0.3-0.2,0.4
		c-0.2,0-0.3,0-0.4-0.2C-173.4,448.3-173.4,448.2-173.2,448.2z M-172.4,452.1c0.1,0,0.2,0,0.1,0.1c0,0,0,0.1-0.1,0.2l-0.1,0.1
		c-0.1,0-0.2-0.1-0.2-0.2C-172.6,452.2-172.5,452.2-172.4,452.1z M-172.3,450.5c-0.1,0-0.1,0-0.1-0.1c0,0,0-0.1,0.1-0.2l0.1-0.1
		l0,0.1c0,0,0,0.1,0,0.1c0,0,0,0,0,0.1C-172.1,450.4-172.2,450.4-172.3,450.5z M-172.3,448.4c-0.1,0-0.2-0.1-0.2-0.2
		c0-0.1,0-0.2,0.1-0.2l0.1,0.1c0,0,0,0.1,0.1,0.1C-172.2,448.3-172.2,448.4-172.3,448.4L-172.3,448.4z M-171.6,451.7
		c0.2,0.1,0.3,0.3,0.3,0.4c-0.2,0.1-0.3,0.2-0.3,0.1l-0.2-0.3C-171.9,451.7-171.8,451.6-171.6,451.7z M-171.9,450.1
		c0-0.2,0-0.2,0.1-0.2c0.1,0,0.2,0.1,0.2,0.3C-171.8,450.5-171.9,450.5-171.9,450.1z M-170.2,450.2c0.1,0.2,0.1,0.3,0,0.3
		c-0.1,0-0.2,0-0.3,0c-0.1,0-0.2,0.1-0.3,0.2c-0.3,0-0.4,0-0.4-0.1c-0.2-0.2,0-0.3,0.4-0.3c0.3,0,0.5-0.1,0.5-0.2
		C-170.4,450.1-170.4,450.1-170.2,450.2z M-171.2,450c0,0.1-0.1,0.1-0.1,0.1c-0.1,0-0.1-0.1-0.1-0.2c0-0.2,0-0.3,0.2-0.3
		s0.2,0,0.2,0.2C-171,449.9-171.1,450-171.2,450z M-170.6,451.5c0-0.2,0-0.2,0.1-0.2c0,0,0.1,0.1,0.1,0.2
		C-170.5,451.7-170.5,451.7-170.6,451.5z"/>
	<path id="XMLID_148_" class="st0" d="M-128.1,470.6c2.6,2.4,3.8,3.7,3.8,3.9c0,0-0.1,0-0.3-0.1c-0.2-0.1-0.5-0.3-0.7-0.5
		c-0.2-0.2-0.5-0.4-0.7-0.6c-0.2-0.2-0.3-0.4-0.4-0.5c0,0-0.1-0.2-0.4-0.4c-0.3-0.2-0.6-0.5-0.9-0.8c-0.2-0.1-0.3-0.2-0.4-0.3
		c-0.1-0.1-0.2-0.2-0.3-0.3c0.3,0.3,0.4,0.5,0.3,0.5c0,0,0,0.1,0.2,0.2c0.1,0,0.2,0.2,0.5,0.4c0.2,0.2,0.5,0.4,0.8,0.7
		c0.3,0.2,0.6,0.5,0.8,0.8c0.3,0.3,0.5,0.5,0.6,0.6c0.2,0.4,0.4,0.6,0.4,0.9c0,0.2,0,0.3,0,0.3c0,0-0.1,0-0.3-0.1
		c-0.2-0.1-0.3-0.1-0.5,0c-0.1,0.1-0.3,0.1-0.4-0.1c-0.1,0-0.1,0-0.1,0.1c0,0.2,0,0.3-0.1,0.4c-0.1,0.1-0.2,0-0.2-0.1
		c0-0.1-0.9-0.9-2.5-2.4c-0.3-0.1-0.5-0.3-0.7-0.6c-0.1-0.1-0.2-0.2-0.3-0.3c-0.1-0.1-0.2-0.2-0.3-0.2c-0.2,0,0.1,0.4,1,1.2
		c0.4,0.4,0.7,0.7,0.9,1c0,0.3,0.2,0.4,0.3,0.3c0.1,0,0.1,0.1,0.1,0.4c0,0.2,0.1,0.3,0.2,0.2c0.1-0.1,0.2-0.1,0.2,0
		c0,0.1,0,0.1,0.1,0.3c0.1,0.1,0.2,0.3,0.3,0.4c0.1,0.1,0.3,0.2,0.4,0.3c0.1,0.1,0.2,0.1,0.2,0c0.1-0.1,0.1-0.1,0,0.1
		c0,0.1,0,0.2-0.2,0.3c-0.1,0.1-0.3,0.2-0.4,0.3c-0.3,0.3-0.4,0.5-0.4,0.6c0,0.1-0.1,0.2-0.3,0.2c-0.2,0-0.3,0.1-0.3,0.3
		c0,0.1-0.1,0.2-0.2,0.4c-0.1,0.2-0.3,0.3-0.5,0.5c-0.2,0.2-0.3,0.3-0.5,0.5c-0.2,0.1-0.3,0.2-0.3,0.2l-0.4-0.1
		c-0.1,0-0.3-0.1-0.6-0.4c-0.3-0.3-0.7-0.6-1.2-1c-0.4-0.4-1.1-0.9-1.9-1.6c-0.9-0.7-1.7-1.4-2.5-2.2c-0.8-0.7-1.5-1.3-2.3-1.9
		c-0.7-0.6-1.3-1.1-1.5-1.3c-0.3-0.2-0.6-0.5-1.1-1c-0.5-0.4-0.9-0.8-1.3-1.2c-0.7-0.6-1.5-1.3-2.4-2.2c-0.9-0.9-2.1-2.1-3.6-3.7
		c-0.8-0.8-1.4-1.4-1.9-1.8c-0.5-0.5-0.8-0.9-1.1-1.2c-0.3-0.3-0.5-0.5-0.6-0.7c-0.1-0.2-0.3-0.3-0.4-0.5c-0.4-0.5-0.7-0.7-0.8-0.8
		c-0.2-0.1-0.4,0-0.7,0.3c-0.2,0.3-0.3,0.5-0.3,0.7c0,0.2-0.1,0.8-0.1,1.8c0,0.2,0,0.4,0,0.6c0,0.2,0,0.4,0,0.5c0,0.1-0.1,0.5-0.1,1
		c0,0.5,0,1.1,0,1.8c0,0.6,0,1.2,0,1.7c0,0.5,0,0.8,0,0.8c0,0,0,0.1-0.1,0.1c-0.1-0.1-0.2-0.5-0.3-1.2c-0.1-0.7-0.1-1.5-0.1-2.5
		c0-0.4,0.1-0.8,0.1-1.2c0-0.3,0-0.5-0.1-0.6c-0.2-0.1-0.1-0.2,0-0.2c0.1,0,0.1-0.3,0-0.9c0-0.6-0.1-0.9-0.3-0.9
		c-0.1,0-0.1,0.1-0.1,0.4c0,0.2,0,0.4-0.2,0.4c-0.1,0-0.1,0.1,0.1,0.4c0.1,0.3,0.2,0.5,0.2,0.6c-0.1,0.2-0.1,0.5-0.1,1.2
		c0,0.6,0,1.2,0,1.7c0.1,0.6,0,1-0.1,1.1c-0.2,0.1-0.2,0.2,0,0.3c0.2,0.1,0.2,0.2,0.1,0.5c-0.1,0.3-0.2,0.3-0.3,0.3
		c-0.2,0-0.4,0.1-0.5,0.2c0,0.1,0,0.1,0,0.1c0,0,0-0.1,0-0.2c0-0.3-0.1-0.4-0.2-0.4c-0.2,0.1-0.2,0.3-0.1,0.5c0,0.2,0,0.4-0.1,0.4
		c-0.1,0-0.2-0.3-0.3-0.8c0-0.6-0.1-0.8-0.2-0.8c-0.1,0-0.1-0.2,0.1-0.5c0.2-0.4,0.3-0.8,0.1-1.1c-0.1-0.3-0.2-0.7-0.2-1.2
		c0-0.5,0-0.9,0.2-1.2c0.1-0.4,0.1-0.6,0.1-0.9c0-0.2-0.2-0.3-0.4-0.3c-0.2,0-0.3,0.1-0.3,0.2c0,0.1-0.1,0.2-0.3,0.3
		c-0.2,0-0.2,0.1-0.1,0.2c0,0.2,0,0.4-0.1,0.5c-0.2,0.2-0.2,0.3,0,0.1c0.1-0.1,0.2-0.1,0.4,0s0.1,0.3,0,0.5
		c-0.1,0.2-0.2,0.4-0.2,0.7c0,0.3,0,0.4,0.1,0.3c0.2-0.2,0.3-0.2,0.3,0c0,0.1,0,0.2-0.2,0.2c0,0,0,0.1-0.2,0.4c0,0.1,0,0.2,0,0.3
		c0,0.1-0.1,0.2-0.1,0.3c0,0.1,0.1,0.2,0.2,0.1c0.2-0.2,0.2-0.1,0,0.3c-0.1,0.3-0.2,0.4-0.4,0.4c-0.1,0-0.1,0.1,0,0.3
		c0.3,0.1,0.4,0.4,0.3,1c-0.1,0.6-0.2,1-0.2,1c-0.2,0.2-0.2,0.2-0.2-0.1c0.1-0.2,0-0.3-0.1-0.4c-0.1,0-0.2,0.1-0.2,0.4
		c0,0.3,0.1,0.4,0.3,0.4c0.2,0,0.2,0.1-0.1,0.3c-0.2,0.2-0.2,0.3-0.1,0.3c0.4-0.1,0.6,0,0.5,0.3c-0.1,0.6-0.3,0.6-0.5,0.1
		c-0.1-0.1-0.1-0.1-0.1,0.2c0,0.2,0.1,0.3,0.3,0.3c0.2,0,0.3,0.1,0.2,0.4c0,0.1,0,0.2,0,0.4c0,0.2,0,0.4,0,0.5c0,0.2,0,0.3,0,0.5
		c0,0.1,0,0.2,0,0.3c0,0-0.1,0.1-0.3,0.1c-0.2,0.1-0.3,0-0.3-0.4c0-0.1,0-0.2,0-0.3c0-0.1,0-0.2,0.1-0.3c0.3-0.2,0.3-0.6,0-1.2
		c-0.2-0.5-0.5-0.6-0.9-0.1c-0.2,0.2-0.2,0.4-0.2,0.5c0,0.1,0.1,0.1,0.4,0c0.2-0.1,0.3,0,0.3,0.4c0,0.5,0,0.9,0,1.2
		c0.1,0.4-0.1,0.6-0.5,0.7c-0.3,0-0.7,0.1-1.1,0.3c-0.4,0.1-0.8,0.1-1.4,0c-0.4-0.1-0.7-0.2-0.8-0.2c-0.1-0.1-0.1-0.3-0.1-0.7
		c0-1.6-0.1-2.8-0.1-3.4c0-0.6,0-1.2,0-1.6c0-0.2,0-0.6,0-0.9c0-0.4,0-0.8,0-1.1c0-1.6,0-3,0-4.1c0-1.1-0.1-1.8-0.2-1.9
		c-0.1-0.3-0.3-0.4-0.3-0.4c-0.1,0-0.2,0-0.5-0.2c-0.2-0.1-0.4-0.3-0.6-0.5c-0.2-0.2-0.4-0.4-0.6-0.6c-0.2-0.2-0.3-0.3-0.3-0.4
		c0-0.2,0-0.3,0.2-0.5c0.2-0.1,0.5-0.3,1-0.5c0.8-0.5,1.2-0.8,1.2-1c0.1-0.1,0.1-0.6,0.2-1.5c0-0.9,0-1.9,0-3
		c0.1-1.2,0.1-2.6,0.2-4.3c0.1-1.7,0.1-3.1,0.2-4.3l0.3-4.3l-0.6-0.3c-0.1-0.1-0.2-0.2-0.4-0.2c-0.1-0.1-0.2-0.1-0.2-0.2
		c0-0.1-0.2-0.3-0.6-0.6c-0.4-0.3-0.7-0.5-0.9-0.5c-0.1,0-0.4-0.2-0.8-0.5c-0.5-0.3-0.9-0.6-1.5-1c-1-0.7-1.5-1.1-1.7-1.3
		c-0.2-0.2-0.2-0.4-0.2-0.8c0.1-0.4,0.4-0.8,1-1.4c0.6-0.6,1.3-1.2,2.2-1.9c0.9-0.7,1.8-1.3,2.9-1.9c1-0.6,2.1-1.1,3.1-1.6
		c0.9-0.4,1.8-0.7,2.9-1.1c1-0.3,2.1-0.6,3.1-0.9c1.1-0.2,2.1-0.5,3-0.6c0.9-0.2,1.7-0.2,2.4-0.2c0.8,0,1.7,0.2,2.7,0.4
		c1,0.3,1.9,0.6,2.7,1.1c0.4,0.2,1,0.6,1.8,1.2c0.8,0.6,1.6,1.2,2.4,1.9c0.8,0.7,1.6,1.3,2.3,1.9c0.7,0.6,1.2,1,1.4,1.3
		c0.6,0.6,1,1.2,1.3,1.8c0.3,0.6,0.5,1.3,0.7,2.1c0.4,2.1,0,4.4-1.2,6.7c-1.2,2.3-3.3,4.9-6.2,7.6c-0.3,0.3-0.7,0.6-1.1,1
		c-0.4,0.4-0.9,0.8-1.3,1.2c-0.5,0.4-0.9,0.8-1.3,1.1c-0.4,0.3-0.7,0.5-0.8,0.7c-0.4,0.3-0.7,0.5-0.9,0.7c-0.2,0.2-0.3,0.3-0.3,0.4
		c0,0.1,0.1,0.3,0.3,0.5c0.2,0.2,0.5,0.5,0.8,0.9c0.3,0.3,0.8,0.8,1.3,1.3c0.5,0.5,1,1,1.3,1.3c0.3,0.4,0.8,0.9,1.5,1.5
		c0.6,0.6,1.2,1.1,1.7,1.6c0.5,0.5,1.3,1.1,2.3,2c1,0.9,1.9,1.8,2.8,2.6c0.9,0.8,1.6,1.5,2.2,2c0.6,0.5,1.1,1,1.5,1.4
		c0.5,0.4,0.9,0.8,1.3,1.2C-129.2,469.7-128.7,470.1-128.1,470.6z M-159.6,467.3c0-0.1-0.1-0.2-0.2-0.2c-0.1,0-0.1,0.1-0.1,0.2
		c0,0,0,0.1,0.1,0.1C-159.7,467.4-159.7,467.4-159.6,467.3z M-158.6,468.5c0.1-0.3,0.1-0.5,0-0.8c-0.1-0.3-0.1-0.4-0.2-0.4
		c-0.1,0-0.2,0.1-0.2,0.2c0,0,0,0.1,0,0.2c0,0.1,0,0.3,0,0.5c0,0.3,0,0.5,0.1,0.5C-158.7,468.9-158.6,468.8-158.6,468.5z
		 M-163.4,435.7l0.1-0.2c0-0.1-0.1-0.1-0.2-0.1c-0.1,0-0.1,0.1,0,0.1C-163.5,435.8-163.5,435.8-163.4,435.7L-163.4,435.7z
		 M-158.8,466.6c0.2,0,0.3-0.1,0.3-0.2c0-0.1-0.1-0.2-0.2-0.2c-0.1,0-0.2,0.1-0.2,0.2C-159,466.6-159,466.6-158.8,466.6z
		 M-156,467.6c0.3-0.7,0.5-0.5,0.5,0.6c0.1,1.3,0.1,2.1,0.1,2.5c0,0.4-0.1,0.7-0.2,0.7c-0.2,0-0.3-0.2-0.3-0.8c0-0.2,0-0.5,0-0.8
		c0-0.3,0-0.5,0-0.6c-0.1-0.4-0.2-0.7-0.4-0.7c-0.2,0-0.3,0-0.3,0c0,0,0.1,0.1,0.2,0.4c0.1,0.2,0.1,0.3-0.1,0.1
		c-0.3-0.1-0.4-0.2-0.4-0.4c0-0.1,0.1-0.2,0.2-0.3c0.2-0.1,0.3-0.1,0.4,0.1c0,0,0.1,0,0.1,0c0,0,0.1,0,0.2,0c0.1,0,0.1-0.1,0-0.1
		C-156,468.1-156,467.9-156,467.6z M-156.3,467.7c0,0.1-0.1,0.1-0.1,0.2c0,0,0,0.1-0.1,0.1c-0.1,0-0.2-0.1-0.2-0.2
		c0-0.1,0.1-0.2,0.2-0.2C-156.2,467.5-156.2,467.6-156.3,467.7z M-156,464.1c0.1-0.1,0.1-0.2-0.1-0.1c-0.1,0-0.2,0.1-0.2,0.2l0,0.1
		c0,0,0,0.1,0.1,0.1C-156.2,464.4-156.1,464.3-156,464.1z M-155.9,462.4c0-0.2,0-0.4,0-0.4c0,0-0.1,0.1-0.1,0.2
		c-0.2,0.3-0.2,0.6-0.2,0.8c0,0.2,0.1,0.3,0.2,0.2C-156,463-156,462.8-155.9,462.4z M-156,461.2c0.1-0.3,0.1-0.4-0.1-0.5
		c-0.1-0.2-0.2-0.2-0.1,0.2C-156.2,461.2-156.1,461.3-156,461.2z M-154.7,470.9c0.1-0.1,0.2,0,0.2,0.2c0,0.1,0,0.2-0.2,0.2
		c-0.1,0-0.1,0-0.2-0.1C-154.8,471.1-154.7,471-154.7,470.9z M-154.7,468.9c0.1,0,0.2,0.1,0.3,0.5c0,0.3,0,0.4-0.2,0.5
		c-0.1,0-0.2-0.1-0.3-0.4C-154.9,469.1-154.9,468.9-154.7,468.9z M-157.5,445.4c-0.2,0.2-0.2,0.3-0.1,0.3c0.1,0,0.2-0.1,0.4-0.2
		c0.1-0.2,0.2-0.3,0.1-0.3C-157.1,445.1-157.2,445.2-157.5,445.4z M-156.8,447.8c0.1,0,0.2-0.1,0.2-0.1l-0.2-0.2
		c-0.1,0-0.1,0.1-0.1,0.2C-157,447.8-156.9,447.8-156.8,447.8z M-154.9,459.5c0,0,0.1-0.1,0-0.3c-0.1-0.3-0.2-0.2-0.1,0.1
		C-155,459.4-155,459.5-154.9,459.5C-154.9,459.7-154.9,459.6-154.9,459.5z M-156.6,444.9c0-0.2-0.1-0.3-0.1-0.2
		c-0.1,0-0.2,0.2-0.2,0.4c0,0.2,0.1,0.3,0.1,0.2C-156.7,445.3-156.7,445.1-156.6,444.9z M-153.6,457.5c0-0.1-0.1-0.1-0.2-0.1
		c-0.1,0-0.2,0-0.3,0.1c-0.1,0.1,0,0.1,0.2,0.1L-153.6,457.5z M-151.3,445.9c4.2-3.6,7.1-6.6,8.8-9.1c1.7-2.5,2.4-4.9,2.1-7.1
		c-0.1-0.7-0.3-1.1-0.6-1.3c-0.3-0.2-0.9-0.3-2-0.3c-1.9,0-4.3,0.4-7.3,1.4c-1.2,0.4-2,0.7-2.3,0.9c-0.3,0.2-0.4,0.4-0.4,0.7
		c0,0.1,0,0.5,0,1.1c0,0.6,0,1.3-0.1,2.2c0,0.9-0.1,1.8-0.2,2.7c-0.1,1-0.1,1.9-0.2,2.8c-0.1,0.9-0.1,1.9-0.2,2.8
		c-0.1,0.9-0.1,1.8-0.1,2.6c0,0.8-0.1,1.7-0.1,2.6c0,0.1,0.2,0,0.4-0.2C-153.1,447.5-152.4,446.9-151.3,445.9z M-145,448
		c0-0.2,0-0.3-0.1-0.2c-0.1,0-0.2,0.2-0.2,0.4c0,0.1,0,0.2,0.2,0.2C-145.1,448.3-145,448.2-145,448z M-133.9,469.3
		c0.3,0.1,0.3,0,0.1-0.3c-0.1-0.1-0.2-0.2-0.4-0.3c-0.1-0.1-0.3-0.3-0.4-0.3l-0.6-0.4l0.5,0.4c0.3,0.2,0.4,0.4,0.5,0.7
		C-134.2,469.2-134.1,469.3-133.9,469.3z M-130.7,471.8c-0.1,0-0.1-0.1-0.1-0.1c-0.1,0-0.1-0.1-0.1-0.1c0,0,0-0.1-0.1-0.2
		c-0.1-0.1-0.3-0.2-0.6-0.5c-0.3-0.3-0.6-0.5-0.8-0.7c-0.4-0.4-0.7-0.6-0.8-0.6c-0.1,0,0,0.1,0.2,0.3c0.1,0.2,0.3,0.3,0.4,0.5
		c0.2,0.2,0.3,0.3,0.4,0.4c0.3,0.2,0.4,0.3,0.4,0.4c0,0.1,0.2,0.3,0.4,0.5C-131,471.9-130.8,471.9-130.7,471.8z M-130.7,469.2
		c0.1,0,0-0.2-0.4-0.4c-0.1,0-0.2-0.1-0.4-0.2l-0.2-0.1c-0.1,0,0,0.1,0.3,0.4C-131,469.1-130.8,469.2-130.7,469.2z M-129.8,470.1
		c0.3,0.3,0.4,0.4,0.5,0.4c0,0-0.1-0.1-0.3-0.4c-0.1-0.1-0.2-0.2-0.3-0.3c-0.1-0.1-0.1-0.1-0.2-0.2
		C-130.3,469.6-130.2,469.8-129.8,470.1z M-127.4,475.5c-0.1-0.1-0.1-0.2,0-0.2s0.2,0,0.2,0.2c0,0,0,0.1,0,0.2
		C-127.2,475.6-127.3,475.6-127.4,475.5z M-126.4,474.7c-0.1-0.1-0.2-0.2-0.3-0.2c-0.1,0-0.2,0.1-0.2,0.2c0,0.2,0.2,0.3,0.4,0.3
		C-126.3,475-126.3,474.9-126.4,474.7z"/>
	<path id="XMLID_174_" class="st0" d="M-91.1,457.7c-0.2,0-0.4-0.3-0.6-0.9c-0.2-0.5-0.3-0.9-0.3-1.3c-0.1-0.2-0.2-0.5-0.3-0.7
		c0-0.3-0.1-0.5-0.2-0.6c-0.1-0.1-0.1-0.3-0.1-0.5c0-0.2-0.1-0.3-0.2-0.4c0-0.1-0.1-0.2-0.1-0.3c-0.1-0.1-0.1-0.2-0.1-0.3
		c0-0.1-0.1-0.2-0.1-0.2c-0.1-0.1-0.1-0.1-0.1-0.2c-0.1,0-0.2-0.1-0.1-0.4c0-0.2-0.1-0.3-0.3-0.3c-0.1,0-0.2,0.2-0.1,0.6
		c0.2,0.4,0.3,0.8,0.4,1.2c0.1,0.4,0.1,0.6,0,0.6c-0.1,0-0.1,0-0.1,0.1c0,0,0.1,0.1,0.2,0.1c0.2,0.1,0.2,0.3,0.3,0.8
		c0,0.4,0,0.7,0.2,0.6c0.1,0,0.2,0.1,0.2,0.2c0,0,0,0.3,0.2,0.8c0.2,0.4,0.2,0.6,0.1,0.5c-0.2,0-0.2,0.1,0.1,0.5
		c0.1,0.2,0.2,0.5,0.3,0.9c0.1,0.4,0.1,0.6,0,0.6c-0.1,0.1,0,0.2,0.1,0.3c0.1,0,0.1,0.2,0.2,0.4c0.1,0.3,0.2,0.5,0.2,0.8
		c0.1,0.3,0.1,0.6,0.1,0.8c0,0.2,0,0.4-0.1,0.4c-0.1,0-0.1,0-0.2-0.1c0,0-0.1-0.1-0.1-0.2c0-0.1-0.1-0.3-0.1-0.4
		c-0.2-0.4-0.3-0.8-0.3-1.3c-0.1-0.5-0.2-0.8-0.4-1c-0.1-0.1-0.2-0.2-0.2-0.3c0-0.1,0-0.2,0-0.3c0.1-0.3,0-0.4-0.2-0.5
		c-0.1,0-0.1-0.2-0.1-0.4c0.1-0.2,0.1-0.3,0.1-0.3c0,0,0,0-0.1,0.1c-0.1,0.1-0.1,0-0.1-0.3c0-0.3,0-0.5-0.1-0.5
		c-0.1-0.1-0.1,0-0.1,0.2c0,0.2,0,0.3-0.2,0.3c-0.2,0-0.3-0.2-0.3-0.4c-0.1-0.2-0.1-0.4,0.2-0.4c0.2,0,0.3-0.3,0.2-0.7
		c-0.1-0.4-0.2-0.6-0.3-0.6c-0.2,0-0.2,0.4,0,0.9c0,0.2-0.1,0.2-0.3-0.1c-0.2-0.2-0.4-0.4-0.4-0.7c0-0.2-0.1-0.5-0.3-0.8
		c-0.2-0.3-0.4-0.7-0.6-1.2c-0.1-0.5-0.2-0.9,0-1c0.1,0,0.1-0.2-0.1-0.4c-0.2-0.3-0.3-0.5-0.3-0.8c0-0.2-0.1-0.3-0.3-0.3
		c-0.4-0.1-0.3-0.4,0-0.9c0.1-0.2,0.1-0.2-0.1-0.1c-0.2,0-0.3-0.1-0.4-0.3c-0.1-0.1-0.2-0.2-0.2-0.3s0-0.3-0.1-0.4
		c0-0.1,0-0.1,0-0.2c0-0.1-0.1-0.2-0.1-0.3c-0.1-0.1-0.2-0.3-0.3-0.6c-0.1-0.3-0.2-0.7-0.4-1.2c-0.2-0.5-0.3-0.9-0.3-1.2
		c-0.1-0.3-0.1-0.4,0-0.5c0.2-0.1,0.1-0.3-0.1-0.5l-0.3-0.2c0-0.3-0.1-0.3-0.2,0c-0.1,0.3-0.1,0.6,0,0.9c0,0.3,0.1,0.5,0.2,0.4
		c0.2,0,0.3,0.2,0.3,0.8c0,0.2,0.1,0.4,0.1,0.6c0,0.2,0.1,0.3,0.2,0.3c0.1,0,0.1,0.1,0.2,0.3c0.1,0.2,0.1,0.3,0.2,0.5
		c0.1,0.2,0.1,0.3,0.1,0.5c0,0.1,0,0.2-0.1,0.1c-0.2-0.1-0.2,0-0.2,0.1c0,0.2,0.1,0.3,0.2,0.4c0.1,0.1,0.1,0.2,0.2,0.2
		c0.1,0,0.1,0.1,0.1,0.2c0,0.2,0.1,0.4,0.1,0.5c0.4,1,0.5,1.5,0.3,1.3c-0.1,0-0.2,0.1-0.2,0.3c0,0.2,0.1,0.3,0.3,0.3
		c0.1,0,0.1,0.2,0.1,0.5c-0.1,0.3,0,0.5,0.1,0.6s0.2,0.1,0.4-0.1c0.1-0.1,0.2,0,0.2,0.3c0,0.3,0,0.5-0.2,0.6c-0.1,0.3-0.1,0.6,0,0.9
		c0.2,0.4,0.3,0.5,0.1,0.6c-0.1,0-0.1,0.1,0.1,0.4c0,0.2,0.1,0.3,0.3,0.3c0.2,0,0.3,0,0.3,0.2c0,0.1,0,0.2-0.2,0.1
		c-0.1-0.1-0.2-0.1-0.1,0.1c0,0.1,0.1,0.2,0.3,0.2c0.2,0,0.2,0,0,0.1c-0.1,0-0.2,0.1-0.2,0.2c0.1,0.1,0.1,0.2,0.1,0.4
		c0,0.2,0.1,0.3,0.1,0.5c0.1,0.3,0.1,0.5,0.1,0.5c0,0.1-0.1,0.1-0.2,0.1c-0.1,0-0.2,0-0.2,0.1c0,0.1,0.1,0.2,0.3,0.2
		c0.1,0,0,0.1-0.3,0.1c-0.3-0.1-0.4,0-0.4,0.1c0,0.1,0,0.4,0.1,1c0.2,0.7,0.3,1.1,0.4,1c0.1,0,0.2,0.1,0.2,0.4
		c0.1,0.4,0,0.6-0.1,0.6c-0.1,0-0.1,0.1-0.1,0.3c0,0.2,0.1,0.3,0.2,0.3c0.1,0,0.3,0.4,0.5,1.2c0.1,0.3,0.2,0.6,0.3,0.9
		c0.1,0.3,0.2,0.4,0.3,0.5c0.1,0.1,0.1,0.2,0,0.2c-0.1,0-0.3,0-0.5-0.2c-0.2-0.2-0.3-0.4-0.3-0.6c0,0-0.1,0-0.1,0.1
		c-0.2,0.3,0,0.7,0.7,1.3c0.5,0.4,0.6,0.6,0.4,0.6c-0.1,0-0.3,0-0.5-0.2c-0.2-0.2-0.3-0.1-0.1,0.2c0,0.3,0.1,0.6,0.3,0.8
		c0,0.3,0.1,0.4,0.2,0.4c0.1,0,0.2-0.2,0.1-0.5c0-0.2,0-0.4,0.1-0.4c0.1,0,0.2,0.1,0.3,0.3c0.1,0.3,0.2,0.6,0.2,0.8
		c0,0.2-0.2,0.3-0.4,0.2c-0.2-0.1-0.3,0-0.3,0.1c0,0,0.1,0.1,0.4,0.2c0.3,0,0.5,0.1,0.4,0.3c-0.1,0.3,0,0.4,0.3,0.3
		c0.3,0.1,0.4,0.2,0.3,0.3c0,0.1-0.2,0.2-0.4,0.2c-0.3,0-0.4-0.1-0.5-0.4l-0.1-0.4l-0.1,0.5c0,0.3,0,0.5,0,0.6
		c0,0.1-0.1,0.2-0.4,0.2c-0.2,0-0.4,0.1-0.4,0.3c0,0.1-0.1,0.2-0.3,0c-0.2-0.2-0.3-0.2-0.3,0c0,0.1-0.2,0.3-0.4,0.3
		c-0.2,0.1-0.5,0-0.7-0.1c-0.3-0.1-0.5-0.4-0.7-0.9c-0.2-0.5-0.2-0.7,0-0.7c0.3,0.1,0.3,0,0.2-0.2c-0.2-0.6-0.3-0.9-0.4-1.1
		c-0.1-0.2-0.2-0.2-0.2-0.2c-0.1,0.2-0.2,0.2-0.2,0c0-0.1,0-0.2,0.2-0.3c0-0.1,0.1-0.1,0-0.2c0-0.2-0.1-0.5-0.4-1
		c-0.1-0.5-0.2-0.8-0.3-1s-0.1-0.2-0.1,0.1c0,0.1,0,0.2-0.1,0.2c-0.1,0-0.2-0.2-0.2-0.6l-0.1-0.4l0-0.2c0,0-0.1-0.1-0.2-0.3
		c-0.1-0.2-0.2-0.4-0.3-0.7c-0.1-0.3-0.2-0.5-0.3-0.8c-0.1-0.2-0.1-0.4,0-0.4c0-0.1,0-0.2-0.1-0.3c-0.1-0.1-0.2-0.3-0.3-0.6
		s-0.2-0.6-0.3-0.9c-0.2-0.5-0.3-0.8-0.3-1.1c-0.1-0.3-0.1-0.6-0.2-0.9c-0.1-0.3-0.2-0.6-0.3-1c-0.1-0.4-0.3-0.9-0.6-1.6
		c-0.3-0.7-0.5-1.6-0.9-2.6c-0.3-1-0.7-2-1-2.9c-0.3-0.9-0.6-1.7-0.8-2.4c-0.2-0.7-0.4-1.1-0.4-1.2c-0.1-0.1-0.6,0-1.7,0.5
		c-0.4,0.2-0.8,0.4-1.2,0.6c-0.4,0.2-0.7,0.3-0.8,0.4c-0.1,0.1-0.3,0.2-0.6,0.3c-0.3,0.1-0.5,0.2-0.7,0.4c-0.2,0.1-0.7,0.4-1.5,0.7
		c-0.8,0.3-1.6,0.7-2.4,1c-1.1,0.5-1.9,0.9-2.5,1.2c-0.6,0.3-1,0.5-1.2,0.6c-0.2,0.1-0.4,0.3-0.5,0.4c-0.1,0.1-0.1,0.3-0.2,0.5
		c-0.2,0.5-0.2,0.9-0.2,1c0,0.1-0.1,0.5-0.3,1c-0.2,0.5-0.4,0.8-0.5,0.8c-0.1-0.1-0.1,0,0,0.1c0.1,0.2,0.1,0.3,0,0.3
		c-0.1,0-0.2-0.1-0.4-0.2c-0.1-0.1-0.3-0.2-0.4-0.1c-0.2,0.1-0.2,0.2-0.1,0.3c0.1,0.1,0.1,0.1,0,0.1c-0.1,0-0.2,0.1-0.3,0.4
		c-0.1,0.3-0.1,0.5-0.1,0.6c0.1,0.1,0.1,0.1-0.1,0.2c-0.1,0-0.2,0.1-0.2,0.4c0,0.2,0,0.4,0,0.6c0.1,0.1,0,0.1-0.2,0.2
		c0,0-0.1,0.1,0,0.3c0.1,0.1,0.1,0.3-0.1,0.4c-0.1,0-0.2,0-0.2,0.1c0,0.1,0,0.1,0.1,0.1c0,0.1,0,0.2-0.1,0.2c-0.1,0-0.2,0.1,0,0.2
		c0.1,0.1,0.1,0.2,0,0.3c-0.1,0.1-0.2,0.1-0.4,0.1c-0.2,0-0.2-0.3-0.1-0.9c0.1-0.4,0.1-0.8,0.1-0.9c0-0.2-0.1,0-0.2,0.4
		c-0.1,0.3-0.2,0.5-0.3,0.6c-0.2,0.1-0.2,0.1-0.3-0.2c0-0.1,0.1-0.2,0.2-0.2c0.1,0,0.2-0.1,0.1-0.2c-0.1-0.1,0-0.3,0.1-0.6
		c0.2-0.3,0.4-0.9,0.3-1.6c0,0,0-0.2,0.1-0.4c0.1-0.2,0.1-0.4,0.2-0.7c0.1-0.3,0.1-0.5,0.2-0.7c0.1-0.2,0.1-0.4,0.1-0.5
		c0-0.1,0-0.2,0.1-0.2c0.1,0,0.1-0.1,0.1-0.3c0-0.3-0.3-0.3-0.7,0c-0.3,0.2-0.4,0.4-0.3,0.6c0,0.1-0.1,0.2-0.3,0.2
		c-0.2,0-0.3-0.1-0.3-0.3c0.1-0.3,0-0.3-0.1-0.1c-0.1,0.1-0.1,0.4,0.1,0.7c0.3,0.5,0.3,0.8-0.1,0.8c-0.2,0-0.3,0.2-0.3,0.5
		c0.1,0.4,0,0.6-0.1,0.7c0,0-0.1,0.1-0.2,0.3c-0.1,0.2-0.2,0.5-0.3,0.7c-0.1,0.3-0.2,0.5-0.3,0.8c-0.1,0.3-0.1,0.5-0.1,0.6
		s-0.1,0.3-0.4,0.6c-0.4,0.2-0.4,0.4-0.2,0.3c0.1,0,0.1,0-0.1,0.2c-0.1,0.2,0,0.2,0.2,0.2c0.2,0,0.4,0,0.4,0c0,0-0.1,0.1-0.2,0.2
		c-0.1,0.1-0.3,0.1-0.5,0.1c-0.2-0.1-0.2,0,0,0.4c0.1,0.1,0.1,0.3,0.1,0.4c0,0.1,0,0.2-0.1,0.2c-0.1,0.1-0.1,0.2-0.1,0.4
		c0.1,0.1,0.1,0.1-0.1,0.2c-0.2,0-0.3,0.2-0.2,0.6c0.1,0.4,0,0.5-0.1,0.4c-0.1-0.1-0.2-0.1-0.3,0.2c-0.2,0.2-0.1,0.3,0.1,0.3
		c0.1,0,0.2,0,0.2,0c0,0,0,0,0,0c-0.2,0.2-0.3,0.4-0.3,0.6c0,0.2-0.1,0.4-0.2,0.4c-0.2-0.1-0.2-0.1-0.1,0.1c0.1,0.1,0.1,0.3,0,0.5
		c-0.1,0.2-0.2,0.4-0.4,0.4c-0.1,0-0.2,0-0.2,0c0,0,0.1-0.2,0.2-0.4c0.1-0.1,0.1-0.2,0.2-0.4c0-0.1,0-0.2-0.1-0.2
		c0-0.2,0-0.3,0.1-0.4c0-0.1,0-0.3-0.2-0.4c-0.2-0.2-0.3-0.1-0.3,0c0.1,0.5,0,0.9-0.1,1.1c-0.1,0-0.1,0.2-0.1,0.4
		c0,0.1,0,0.3-0.2,0.5c-0.3,0.1-0.3,0-0.2-0.3c0.1-0.3,0-0.3-0.2-0.1c-0.1,0-0.2,0-0.2,0.1s-0.1,0.1-0.2,0.1c0,0,0,0.1,0.1,0.1
		c0,0.2,0,0.3-0.2,0.4c-0.2,0.1-0.3,0.2-0.2,0.3c0,0.1,0.1,0.1,0.3,0.1s0.3-0.1,0.2-0.3c0-0.2,0-0.3,0.2-0.2c0.1,0,0.2,0.1,0.3,0.3
		c-0.1,0.3,0.1,0.4,0.3,0.3c0.3,0,0.5,0,0.6,0c0.1,0,0.3,0.1,0.5,0.2c0.2,0.2,0.3,0.4,0.2,0.5c-0.1,0.1-0.5,0.3-1.2,0.4
		c-0.7,0.2-1.5,0.3-2.4,0.3c-0.5,0-0.9,0-1.1,0c-0.2,0-0.3-0.1-0.4-0.2c-0.1-0.2-0.2-0.3-0.3-0.3c-0.1,0-0.2-0.1-0.2-0.3
		c0-0.2,0-0.4,0-0.7c0.1-0.2,0.1-0.2,0.2-0.1c0.2,0.1,0.3,0,0.3-0.4c0.1-0.3,0.1-0.4,0.1-0.4c0,0-0.1,0-0.2,0.1
		c-0.1,0.1-0.2,0.2-0.2,0.2c0,0,0-0.1,0.1-0.4c0.2-0.3,0.3-0.5,0.4-0.5c0.2,0,0.2-0.2,0.1-0.4c-0.1-0.2,0-0.9,0.2-2
		c0.2-1.1,0.5-2.2,0.9-3.4c0.1-0.3,0.1-0.5,0.2-0.6c0.1-0.2,0.1-0.3,0.1-0.3c0.2-0.7,0.3-1.2,0.4-1.6c0.1-0.4,0.2-0.9,0.4-1.4
		c0.1-0.5,0.3-1,0.4-1.4c0.1-0.2,0.2-0.4,0.3-0.8c0.1-0.4,0.2-0.8,0.3-1.2c0.1-0.4,0.2-0.8,0.3-1.2c0.1-0.4,0.2-0.6,0.3-0.8
		c0.1-0.4,0.2-0.6,0.1-0.8c-0.1-0.2-0.3-0.4-0.6-0.7c-0.4-0.4-0.7-0.8-1-1.2c-0.3-0.4-0.4-0.7-0.4-0.9c0-0.2,0.2-0.5,0.4-0.6
		c0.3-0.2,0.8-0.5,1.6-0.8c0.6-0.3,1-0.5,1.2-0.6c0.2-0.1,0.4-0.4,0.5-0.6c0.2-0.4,0.3-0.7,0.3-0.8c0-0.1,0.1-0.4,0.3-1
		c0.2-0.6,0.5-1.6,1-3.3c0-0.3,0.2-0.9,0.4-1.5c0.2-0.7,0.4-1.4,0.6-2.1c1.9-6.8,3.9-13.1,6.2-19.1l0.4-1.2l1.4-0.1
		c0.4-0.1,0.8-0.1,1.2-0.1c0.4,0,0.7,0.1,0.9,0.1c0.4,0.2,0.7,0.2,0.7,0c0.1-0.2,0.3-0.2,0.4-0.2c0.1,0,0.3,0.1,0.3,0.2
		c0.1,0.2,0.2,0.3,0.4,0.3s0.3-0.1,0.4-0.3c0-0.1,0.2-0.3,0.6-0.3c0.4-0.1,0.7,0,0.9,0.2c0.2,0.2,0.4,0.2,0.7,0.1
		c0.2-0.1,0.7,0.4,1.4,1.5c0.7,1.1,1.5,2.7,2.3,4.7c0.2,0.5,0.6,1.2,1,2.3c0.5,1.1,1,2.2,1.5,3.4c0.5,1.2,1,2.3,1.4,3.4
		c0.4,1.1,0.7,1.8,0.9,2.2c0.1,0.4,0.3,0.7,0.4,1c0.1,0.3,0.2,0.4,0.2,0.5c0,0,0.1,0.1,0.3,0c0.2,0,0.3-0.1,0.5-0.2
		c0.3-0.1,0.5-0.2,0.7-0.2c0.1,0,0.3,0.1,0.5,0.2c0.2,0.1,0.3,0.2,0.3,0.2c0,0,0,0-0.1-0.1c-0.1-0.1-0.2-0.2-0.1-0.3
		c0-0.1,0.2-0.1,0.5-0.3c0.7-0.2,1.2,0,1.6,0.9c0.1,0.3,0.3,0.5,0.4,0.6c0.1,0,0.3,0.1,0.4,0.3c0.1,0.2,0.1,0.3-0.1,0.3
		c-0.1,0,0,0.1,0.2,0.3c0.2,0.1,0.3,0.2,0.3,0.4c0,0.2-0.1,0.3-0.3,0.2c-0.2-0.1-0.2-0.1-0.2,0c0,0.1-0.1,0.2-0.5,0.4
		c-0.3,0-0.5,0.1-0.7,0.2c0,0.1-0.1,0.2-0.1,0.2c0,0-0.1,0-0.1-0.1l-0.1,0c-0.1,0-0.2,0-0.2,0.1c-0.1,0-0.2,0.1-0.2,0.1
		c-0.2,0.1-0.4,0.2-0.4,0.3c-0.1,0.1-0.1,0.2-0.1,0.3c0.1,0.3,0,0.4-0.2,0.5c-0.4,0.1-0.5,0.4-0.3,1.1c0.1,0.4,0.3,0.7,0.6,0.8
		c0.3,0,0.3,0,0.2,0.3c-0.2,0.1-0.2,0.1,0,0.1c0.2-0.1,0.4,0,0.6,0.1c0.1,0.1,0.2,0.1,0.3,0.1c0.1,0,0.1,0,0.1-0.1
		c0.1-0.1,0.1-0.2-0.1-0.3c-0.3-0.1-0.3-0.2-0.1-0.4c0-0.1,0.2-0.1,0.4,0.1c0.1,0.1,0.1,0.2,0.2,0.2c0.1,0,0.1,0,0.1-0.1
		c0-0.1,0.2-0.2,0.6-0.2c0.4,0,0.6,0,0.7-0.1c0.1-0.1-0.1-0.2-0.4-0.3c-0.2,0-0.2-0.1-0.3-0.3c0.1-0.1,0.2-0.2,0.4-0.1
		c0.2,0,0.3,0.1,0.3,0.3c0,0.1,0.1,0.1,0.4,0.1c0.2,0,0.4,0,0.6,0.1c0.3,0-0.3,0.4-1.8,0.9c0,0.1-0.1,0.1-0.2,0.1c0,0-0.1,0-0.1,0.1
		l-0.1,0.1l-0.1,0c0,0.1-0.1,0.1-0.3,0.1c0,0.1-0.1,0.2-0.3,0.2c-0.2,0-0.4,0.1-0.5,0.2c-0.1,0.1-0.2,0.3-0.1,0.6s0.1,0.7,0.3,1.3
		c0.2,0.6,0.4,1.3,0.7,2.3c0.2,0.7,0.4,1.3,0.6,1.7c0.1,0.4,0.2,0.8,0.3,1.1c0.1,0.3,0.1,0.6,0.2,0.8c0.1,0.2,0.1,0.5,0.2,0.7
		c0.1,0.2,0.2,0.5,0.3,0.9c0.1,0.4,0.2,0.7,0.3,1c0.1,0.3,0.2,0.6,0.3,1c0.1,0.4,0.2,0.8,0.3,1.1c0.1,0.8,0.2,1.3,0.3,1.3
		c0.1,0.2,0.2,0.5,0.3,0.9c0,0.2,0.1,0.5,0.1,0.6c0.1,0.2,0.1,0.3,0.1,0.4C-90.9,457.5-90.9,457.7-91.1,457.7z M-125.9,462
		c0.1,0,0.1-0.1,0.1-0.2c0,0,0-0.1,0-0.1c0,0,0,0,0-0.1l0-0.1c-0.1,0-0.2,0.1-0.2,0.2C-126,461.9-126,462-125.9,462z M-124.3,460.1
		c0.1-0.2,0.1-0.2-0.2-0.2c-0.1,0-0.2,0.1-0.2,0.2c0,0,0,0.2-0.1,0.5c-0.1,0.3-0.2,0.6-0.3,0.9c-0.2,0.7-0.4,1.1-0.4,1.3
		c0,0.1,0.1,0.2,0.3,0.1c0.2,0,0.3-0.1,0.3-0.1c0,0,0-0.2-0.1-0.4c-0.1-0.3-0.1-0.6,0.1-0.7c0.2-0.2,0.2-0.3,0.1-0.3
		c-0.1,0-0.1,0,0.1-0.2c0.1-0.1,0.2-0.3,0.2-0.5c0-0.1,0-0.2,0-0.3C-124.3,460.3-124.3,460.2-124.3,460.1z M-123.1,466.5
		c0.1-0.2,0.3-0.1,0.5,0.2c0.2,0.2,0.3,0.4,0.3,0.5s-0.1,0.3-0.3,0.5l-0.4,0.4l-0.1-0.4c-0.1-0.3-0.3-0.4-0.5-0.4
		c-0.3,0-0.4,0-0.4-0.2c0-0.2,0.1-0.3,0.4-0.3C-123.3,466.7-123.1,466.6-123.1,466.5z M-123.2,465.7c0,0.5-0.1,0.7-0.4,0.6
		c-0.1-0.1-0.1-0.2-0.1-0.5c0.1-0.2,0.1-0.4,0.2-0.4C-123.2,465.4-123.2,465.5-123.2,465.7z M-124.3,459.7c0.1,0,0.2-0.1,0.2-0.2
		c0-0.1-0.1-0.2-0.2-0.2c0,0-0.1,0.1-0.3,0.3C-124.5,459.7-124.5,459.7-124.3,459.7z M-124.3,459c0.1,0.1,0.2,0.1,0.2,0.1
		c0,0,0.1-0.2,0.1-0.5c0-0.2,0-0.4,0-0.4c0,0-0.1,0.1-0.1,0.2C-124.3,458.8-124.3,459-124.3,459z M-122.9,463.8
		c0.1-0.1,0.1-0.2,0-0.3c-0.1,0-0.1-0.1-0.1-0.1c0,0,0.1,0,0.1,0.1c0.2,0,0.1,0.3-0.2,1c-0.1,0.2-0.2,0.2-0.2-0.1
		c0-0.1,0.1-0.1,0.1-0.2c0-0.1,0-0.1,0.1-0.2C-122.9,463.9-122.9,463.8-122.9,463.8z M-123.7,459.5c0.1,0,0.1-0.1,0.1-0.2
		c0-0.1,0-0.1-0.1-0.1c0,0-0.1,0.1-0.2,0.2C-123.8,459.4-123.8,459.5-123.7,459.5z M-122.2,465.1c0,0.1-0.1,0.2-0.2,0.2
		c-0.2,0-0.3,0-0.4-0.1c-0.1,0-0.1-0.1-0.1-0.1C-122.4,464.8-122.2,464.8-122.2,465.1z M-123.6,457.3
		C-123.5,457.3-123.5,457.2-123.6,457.3c-0.1-0.2-0.3-0.1-0.3,0c-0.1,0-0.1,0-0.1,0.1c0,0,0.1,0,0.2,0L-123.6,457.3z M-122.4,462.6
		c-0.1,0.2-0.2,0.3-0.2,0.4c-0.1,0.1-0.1,0.1-0.1,0c0,0,0.1-0.2,0.2-0.4C-122.5,462.5-122.4,462.5-122.4,462.6z M-121.8,466.8
		c0.2,0,0.3,0.1,0.3,0.2c0,0.3-0.1,0.4-0.4,0.3c-0.1-0.1-0.2-0.2-0.2-0.3C-122.1,466.9-122,466.9-121.8,466.8z M-121.6,467.8
		c0.2,0,0.2,0,0.1,0.2c0,0.1-0.1,0.2-0.3,0.2c-0.1,0-0.1,0,0-0.1C-121.8,467.9-121.8,467.8-121.6,467.8z M-122.4,463.7
		c0-0.1,0.1-0.2,0.2-0.2l0.3,0.1c0,0-0.1,0.1-0.3,0.3C-122.2,464-122.3,463.9-122.4,463.7z M-121.2,460.3c0.3-0.1,0.2,0.2-0.1,1
		c-0.3,0.6-0.4,1.1-0.5,1.7c0,0.4-0.1,0.5-0.3,0.3c-0.1-0.1-0.1-0.3-0.1-0.7c0-0.3,0-0.5-0.1-0.5c-0.1,0.1-0.1,0-0.2-0.3
		s0-0.4,0.1-0.4c0.1,0,0.1-0.1,0.1-0.3c0-0.2,0.1-0.3,0.3-0.3c0.3,0.1,0.4,0,0.3-0.1C-121.6,460.5-121.5,460.4-121.2,460.3z
		 M-121.9,461.6c0.1,0,0.1-0.1,0.1-0.3c0-0.2-0.1-0.3-0.1-0.3c0,0,0,0.1-0.2,0.3C-122.1,461.5-122,461.6-121.9,461.6z M-121.7,459.8
		c-0.1,0-0.2-0.1-0.2-0.2c0-0.1,0-0.2,0.1-0.2c0.1,0,0.2,0,0.2,0.2C-121.5,459.7-121.5,459.7-121.7,459.8z M-120.5,457.6
		c0.2-0.2,0.2-0.3,0.2-0.4c-0.1-0.1-0.2-0.1-0.4,0c-0.2,0.1-0.2,0.2-0.2,0.4C-120.9,457.7-120.7,457.7-120.5,457.6z M-120.4,456.5
		c0-0.1,0-0.2-0.2-0.2c-0.1,0-0.2,0.1-0.2,0.2c0.1,0.1,0.1,0.1,0.2,0.1l0.1,0L-120.4,456.5z M-119.5,457.8c-0.1-0.4,0-0.8,0.3-1.2
		c0.2-0.4,0.4-0.6,0.7-0.5c0,0.1,0,0.4-0.1,0.9c-0.1,0.5-0.2,0.7-0.3,0.8c-0.1,0-0.2,0.1-0.2,0.2c0,0.1-0.1,0.3-0.1,0.4
		c-0.1,0.3-0.2,0.5-0.3,0.6c-0.1,0.2-0.2,0.1-0.2-0.1c0-0.1,0-0.2,0.2-0.4C-119.5,458.4-119.5,458.1-119.5,457.8z M-118.9,455.1
		c0.1,0,0.2-0.1,0.1-0.2c-0.1-0.1-0.2-0.1-0.2-0.1c-0.1,0-0.2,0.1-0.2,0.2C-119.2,455.1-119.1,455.2-118.9,455.1z M-118.9,454.4
		c0.2-0.1,0.3-0.3,0.3-0.5s0-0.3-0.2-0.2c-0.1,0.1-0.2,0.2-0.2,0.3c0,0.2,0,0.3-0.2,0.4c-0.1,0.2-0.2,0.2-0.1,0.2
		C-119.1,454.6-119,454.5-118.9,454.4z M-118.5,453.4c0.2,0,0.3-0.2,0.2-0.5c0-0.2-0.1-0.3-0.3-0.3c-0.1,0.1-0.2,0.3-0.1,0.5
		C-118.7,453.4-118.7,453.4-118.5,453.4z M-116.8,440.7c0.1-0.3,0-0.3-0.2-0.2c-0.1,0.1-0.1,0.1-0.2-0.1c0-0.2-0.1-0.1-0.3,0.1
		c-0.2,0.3-0.2,0.5-0.2,0.6c0,0.2,0.2,0.3,0.4,0.1C-116.9,441-116.8,440.9-116.8,440.7z M-116.6,440
		C-116.6,439.9-116.6,439.9-116.6,440c-0.1-0.1-0.2-0.2-0.3-0.3c-0.1,0-0.2,0.1-0.2,0.2c0,0.1,0.1,0.1,0.2,0.1L-116.6,440z
		 M-116.6,437.9l-0.2,0.5c-0.2,0.3-0.2,0.5,0,0.7c0.1,0.1,0.2,0.1,0.2,0.1l0.1,0.1l0-0.2c0-0.1,0-0.2,0-0.3c0-0.1,0-0.2,0-0.3
		L-116.6,437.9z M-115.9,436.2c0.1-0.3,0.2-0.6,0.2-0.9l0.1-0.4l-0.4,0.6c-0.1,0.2-0.1,0.4-0.2,0.6c-0.1,0.2-0.1,0.3-0.1,0.5
		c0,0.1,0,0.2,0,0.3c0,0.1-0.1,0.2-0.1,0.2c-0.2,0.2-0.2,0.2,0,0.2c0.2,0,0.3-0.1,0.2-0.3c0-0.1,0.1-0.2,0.1-0.3
		C-116,436.4-115.9,436.3-115.9,436.2z M-114.6,439.5c0-0.3-0.1-0.4-0.2-0.3c-0.1,0.1-0.2,0.2-0.2,0.4c0,0.2,0.1,0.3,0.1,0.3
		C-114.8,439.9-114.7,439.8-114.6,439.5z M-114.6,438.9c0.2-0.1,0.3-0.2,0.2-0.3l-0.1,0c0,0-0.1,0.1-0.2,0.2
		C-114.8,438.9-114.7,439-114.6,438.9z M-114.4,438.2c0,0.1,0,0.1,0.2,0c0.2-0.1,0.3-0.2,0.3-0.3c0-0.1-0.1-0.2-0.2-0.1
		C-114.3,438-114.4,438.1-114.4,438.2z M-107.6,437.4c0-0.2-0.2-0.6-0.4-1.3c-0.1-0.3-0.3-0.9-0.6-1.7c-0.3-0.8-0.6-1.6-0.8-2.4
		c-0.3-0.8-0.5-1.5-0.7-2.1c-0.2-0.6-0.3-0.9-0.4-1c-0.1-0.1-0.2,0-0.3,0.5c-0.2,0.5-0.4,1.3-0.8,2.7c-0.1,0.4-0.2,0.8-0.5,1.4
		c-0.2,0.6-0.4,1.2-0.6,1.7c-0.2,0.6-0.3,1-0.4,1.4c-0.1,0.4-0.2,0.6-0.2,0.6c0,0,0,0.2-0.1,0.5c-0.1,0.3-0.2,0.6-0.2,0.9
		c-0.3,0.7-0.4,1.2-0.4,1.4c0,0.1,0.2,0.1,0.5-0.1c0.1-0.1,0.3-0.1,0.4-0.2c0.1,0,0.3-0.1,0.3-0.2c1.3-0.5,2.5-1,3.5-1.4
		C-108.2,437.7-107.7,437.5-107.6,437.4z M-113.8,436.3c-0.1,0.1-0.1,0.2-0.1,0.2c0.1,0,0.2,0.1,0.1,0.3c0,0.2,0.1,0.3,0.2,0.3
		c0.2,0,0.2-0.1,0.1-0.2c-0.1-0.1-0.1-0.2,0-0.4c0.1-0.1,0.1-0.2,0-0.2C-113.6,436.2-113.7,436.2-113.8,436.3z M-107.8,446.7
		c0-0.1-0.1-0.1-0.3-0.1c-0.2,0.1-0.3,0.2-0.3,0.3c0,0.1,0.1,0.1,0.3,0C-108,446.9-107.9,446.8-107.8,446.7z M-107.9,443.9
		C-107.7,444-107.6,444-107.9,443.9c-0.2-0.3-0.3-0.4-0.5-0.4c-0.1,0-0.2,0.1,0,0.4c0,0.2,0.1,0.3,0.2,0.1
		C-108.3,443.7-108.2,443.7-107.9,443.9z M-104.3,427.2c0-0.1,0-0.2,0-0.4c-0.1-0.3-0.2-0.2-0.1,0.1
		C-104.4,427.1-104.4,427.1-104.3,427.2C-104.3,427.3-104.3,427.3-104.3,427.2z M-98.9,461.2c0,0,0.1-0.1,0-0.2
		c0-0.1-0.1-0.1-0.2-0.1c-0.1,0-0.1,0.1-0.1,0.2C-99,461.2-99,461.2-98.9,461.2z M-97.5,467c0-0.3,0-0.3,0.1-0.2
		c0.1,0.1,0.1,0.2,0.1,0.4C-97.4,467.3-97.4,467.2-97.5,467z M-102.2,433c0.1,0.3,0.2,0.5,0.3,0.5c0.1,0,0.1-0.1,0.1-0.4
		c0-0.2-0.1-0.4-0.3-0.5C-102.3,432.5-102.3,432.6-102.2,433z M-96.1,470c0.1,0,0.1-0.1,0-0.4c-0.1-0.3-0.2-0.4-0.3-0.4l0.1,0.4
		C-96.2,469.9-96.2,470-96.1,470z M-95.9,461.7c0.1-0.1,0.1-0.2-0.1-0.1c-0.1,0-0.2,0.1-0.2,0.2c0,0.1,0.1,0.2,0.2,0.2
		c0,0,0.1,0,0.1-0.1L-95.9,461.7z M-97.2,453.3c-0.1,0-0.1,0.1,0,0.3c0,0.2,0.1,0.3,0.1,0.3c0.1,0,0.1-0.1,0.1-0.2
		C-97,453.4-97.1,453.3-97.2,453.3z M-96,456.8c-0.1-0.2-0.2-0.4-0.2-0.4c-0.1,0-0.1,0.1-0.1,0.3c0,0.2,0.1,0.3,0.3,0.3
		C-96,457-96,456.9-96,456.8z M-95,462.6c-0.1,0-0.1,0-0.3,0.1c-0.1,0.2-0.1,0.2,0.1,0.1C-95,462.7-95,462.6-95,462.6z M-94.9,463.9
		c0.1-0.3,0.1-0.5,0-0.7c-0.1-0.2-0.2-0.2-0.3-0.1c-0.1,0.2,0,0.4,0.1,0.6C-95.1,464.2-95,464.2-94.9,463.9z M-96.9,450.2
		c-0.1,0-0.1,0.1-0.1,0.2c0,0.1,0.1,0.2,0.2,0.2c0.1,0,0.1-0.1,0.1-0.2C-96.7,450.2-96.8,450.2-96.9,450.2z M-95.7,458.4
		c0.1,0,0.1-0.1,0.1-0.2c0-0.2-0.1-0.4-0.2-0.4c-0.1,0-0.1,0.1-0.1,0.3C-95.9,458.3-95.8,458.4-95.7,458.4z M-94.5,459.2
		c0,0.1,0,0.2,0,0.2c0,0,0,0.1,0,0.1l0,0.1c0,0,0-0.1-0.1-0.1c-0.1,0-0.2,0-0.3,0c-0.2,0-0.3-0.1-0.2-0.3c0.1-0.2,0.2-0.2,0.2-0.1
		c0,0.2,0.1,0.1,0.1-0.2C-94.6,458.8-94.5,458.9-94.5,459.2z M-94.5,461c0.4-0.4,0.6-0.4,0.6-0.1c0,0.1-0.1,0.2-0.3,0.1
		c-0.3-0.1-0.4,0-0.2,0.1c0.1,0.1,0,0.2-0.1,0.2c-0.1,0-0.2,0-0.2,0C-94.7,461.3-94.7,461.2-94.5,461z M-94.8,460.1
		c0-0.2,0-0.3,0.1-0.3c0,0,0,0.1,0.1,0.1c0,0,0.1,0.1,0.1,0.2c0,0,0,0.1-0.1,0.2l0,0.1C-94.7,460.4-94.8,460.3-94.8,460.1z
		 M-94,462.5c0.1,0,0.2,0.1,0.3,0.3c0,0.3,0,0.4-0.1,0.4c0,0-0.1,0-0.1-0.1c0,0,0-0.1-0.1-0.1c0,0-0.1-0.1-0.1-0.2
		C-94.1,462.6-94.1,462.5-94,462.5z M-93.5,464.5c0-0.1,0-0.3,0-0.3c0-0.1,0.1-0.1,0.1,0l0.1,0.6C-93.4,465-93.5,464.9-93.5,464.5z
		 M-95.9,444.4c-0.2,0-0.2,0.1,0,0.3c0.2,0.2,0.3,0.3,0.4,0.3c0.1,0,0.1-0.1,0-0.4c-0.1-0.4-0.2-0.7-0.3-0.9c-0.1-0.2-0.2-0.2-0.3,0
		c-0.1,0.2,0,0.3,0.1,0.4C-95.8,444.3-95.7,444.4-95.9,444.4z M-94.4,453.2c0.1,0.2,0.2,0.3,0.3,0.3c0.1,0,0-0.1-0.1-0.4
		c0-0.3-0.2-0.4-0.3-0.4C-94.7,452.8-94.6,452.9-94.4,453.2z M-96.4,437.5c-0.1-0.3-0.2-0.2-0.1,0.1c0,0.1,0,0.2,0.1,0.2
		c0,0.1,0,0.1,0,0c0.1,0,0.1-0.1,0.1-0.1C-96.3,437.6-96.3,437.5-96.4,437.5z M-95.2,446.2c0.1,0.4,0.1,0.6,0.2,0.5
		c0.1,0,0.1-0.2,0.1-0.6c0-0.3-0.1-0.5-0.2-0.5C-95.2,445.7-95.2,445.9-95.2,446.2z M-93.1,457.4c0.2,0.2,0.1,0.3-0.1,0.3
		c-0.1,0-0.2-0.1-0.3-0.3l0-0.1c0,0,0-0.1,0.1-0.1C-93.2,457.2-93.1,457.2-93.1,457.4z M-94.8,447.1c0,0.1,0,0.1,0.1,0.1
		c0.1,0,0.2-0.1,0.2-0.2c0-0.1-0.1-0.2-0.2-0.2c0,0-0.1,0-0.1,0.1C-94.8,447-94.8,447.1-94.8,447.1z M-94.7,447.8
		c0.1,0.2,0.2,0.3,0.3,0.3c0.1,0,0.1-0.1-0.1-0.4c0-0.2-0.1-0.3-0.3-0.3C-94.8,447.5-94.8,447.6-94.7,447.8z M-93.5,451.7
		c0.1,0,0.2-0.3,0-0.7c-0.2-0.5-0.3-0.7-0.5-0.8c-0.3-0.1-0.3-0.2,0-0.2c0.1,0,0.1-0.1,0.1-0.4c0-0.2-0.1-0.3-0.2-0.3
		c-0.1,0-0.1,0-0.1,0.2c0,0.1,0,0.3,0,0.7c-0.1,0.3-0.1,0.4,0.1,0.3c0.1-0.1,0.2-0.1,0.1,0.1c0,0.2,0.1,0.4,0.2,0.5
		c0.1,0.1,0.2,0.2,0.2,0.3c0,0.1,0,0.2,0,0.2C-93.7,451.7-93.7,451.7-93.5,451.7z M-94.2,448.7c0-0.3-0.1-0.4-0.2-0.4
		c-0.2,0-0.2,0.3,0.1,0.7c0,0.1,0,0.1,0.1,0C-94.2,449-94.2,448.9-94.2,448.7z M-93,458c0-0.1,0-0.2,0.1-0.1c0.1,0,0.2,0.1,0.2,0.2
		c0,0,0,0.1-0.1,0.1C-92.9,458.2-93,458.1-93,458z M-92.8,459.2c-0.1-0.6,0-0.6,0.2-0.2c0.1,0.3,0.1,0.4,0,0.5
		C-92.7,459.7-92.8,459.5-92.8,459.2z M-94.8,441.7c0.3-0.3,0.5-0.4,0.7-0.2c0.2,0.1,0.2,0.2-0.2,0.3c-0.4,0.2-0.6,0.3-0.7,0.2
		C-95,441.9-95,441.8-94.8,441.7z M-95.3,437.4c0-0.2,0.1-0.2,0.4-0.1c0.1,0.1,0.2,0.1,0.3,0.1c0.1,0,0.1,0,0.1,0.1
		c0,0-0.1,0.1-0.3,0.1C-95.1,437.6-95.3,437.6-95.3,437.4z M-90,465.6c0,0.1,0,0.2-0.1,0.1c-0.1-0.1-0.2-0.2-0.2-0.4
		c0-0.2,0-0.2,0.2-0.1C-90,465.4-90,465.5-90,465.6z M-94.1,437c0.2-0.1,0.3-0.1,0.2,0.2c-0.1,0.2-0.2,0.3-0.3,0.4
		c-0.1,0-0.1,0-0.1-0.2C-94.2,437.2-94.2,437.1-94.1,437z M-91.1,458.1c0.1,0,0.2,0.2,0.3,0.5c0.1,0.3,0.1,0.5,0,0.5l-0.1-0.1
		c0,0-0.1-0.2-0.1-0.5C-91.2,458.2-91.2,458.1-91.1,458.1z M-90,466.4C-90,466.2-90,466.2-90,466.4c0.2,0,0.2,0.1,0.1,0.2
		C-89.9,466.7-89.9,466.6-90,466.4z M-92.9,440.6C-92.8,440.4-92.8,440.5-92.9,440.6c-0.2,0.4-0.3,0.5-0.5,0.2
		c-0.1,0-0.1-0.1-0.1-0.1c0,0,0,0,0.1,0C-93.3,440.8-93.1,440.8-92.9,440.6z M-89.7,467.3c-0.1-0.4,0-0.5,0.2-0.2
		c0.1,0.1,0.2,0.2,0.1,0.2c0,0.1,0,0.1-0.1,0.1C-89.6,467.6-89.7,467.6-89.7,467.3z M-93.4,436.8c0.2-0.1,0.3-0.2,0.4-0.2
		c0,0,0.1,0.1,0.1,0.3c0,0.2,0,0.3-0.2,0.4c-0.2,0-0.3,0-0.4-0.2C-93.6,436.9-93.5,436.8-93.4,436.8z M-92.5,440.8
		c0.1,0,0.2,0,0.1,0.1c0,0,0,0.1-0.1,0.2l-0.1,0.1c-0.1,0-0.2-0.1-0.2-0.2C-92.8,440.8-92.7,440.8-92.5,440.8z M-92.4,439.1
		c-0.1,0-0.1,0-0.1-0.1c0,0,0-0.1,0.1-0.2l0.1-0.1l0,0.1c0,0,0,0.1,0,0.1c0,0,0,0,0,0.1C-92.3,439-92.3,439.1-92.4,439.1z
		 M-92.5,437.1c-0.1,0-0.2-0.1-0.2-0.2c0-0.1,0-0.2,0.1-0.2l0.1,0.1c0,0,0,0.1,0.1,0.1C-92.4,436.9-92.4,437-92.5,437.1L-92.5,437.1
		z M-91.8,440.3c0.2,0.1,0.3,0.3,0.3,0.4c-0.2,0.1-0.3,0.2-0.3,0.1l-0.2-0.3C-92,440.3-92,440.2-91.8,440.3z M-92.1,438.7
		c0-0.2,0-0.2,0.1-0.2c0.1,0,0.2,0.1,0.2,0.3C-92,439.1-92.1,439.1-92.1,438.7z M-90.4,438.9c0.1,0.2,0.1,0.3,0,0.3
		c-0.1,0-0.2,0-0.3,0s-0.2,0.1-0.3,0.2c-0.3,0-0.4,0-0.4-0.1c-0.2-0.2,0-0.3,0.4-0.3c0.3,0,0.5-0.1,0.5-0.2
		C-90.6,438.7-90.5,438.7-90.4,438.9z M-91.4,438.6c0,0.1-0.1,0.1-0.1,0.1c-0.1,0-0.1-0.1-0.1-0.2c0-0.2,0-0.3,0.2-0.3
		c0.1,0,0.2,0,0.2,0.2C-91.2,438.5-91.2,438.6-91.4,438.6z M-90.8,440.1c0-0.2,0-0.2,0.1-0.2c0,0,0.1,0.1,0.1,0.2
		C-90.6,440.3-90.7,440.3-90.8,440.1z"/>
	<path id="XMLID_255_" class="st0" d="M-48.6,439.2c0.5,0.5,0.9,1.1,1.2,1.8c0.3,0.7,0.5,1.3,0.5,1.7c0,0.7-0.2,1.5-0.6,2.4
		c-0.4,0.9-0.9,1.8-1.6,2.8c-0.7,1-1.5,2-2.5,2.9c-1,1-2.1,1.9-3.3,2.8c-0.4,0.4-1,0.7-1.6,1.1c-0.6,0.4-1.2,0.8-1.9,1.1
		c-0.7,0.4-1.3,0.8-2,1.1c-0.7,0.4-1.3,0.7-1.9,1c-0.4,0.2-0.8,0.3-1.3,0.5c-0.4,0.2-0.7,0.3-0.9,0.5c-0.2,0.1-0.5,0.3-0.8,0.4
		c-0.3,0.1-0.6,0.3-0.8,0.3c-0.3,0.1-0.5,0.2-0.8,0.3c-0.3,0.1-0.4,0.2-0.5,0.2c-0.2,0.1-0.6,0.3-1.1,0.5c-0.5,0.2-0.8,0.3-1.1,0.4
		c-0.1,0.1-0.4,0.2-0.7,0.3c-0.3,0.1-0.7,0.3-1,0.4c-0.3,0.2-0.6,0.3-0.9,0.4c-0.3,0.1-0.4,0.2-0.4,0.2c0,0-0.1,0-0.2-0.1
		c0,0-0.1,0-0.2-0.1c-0.2-0.1-0.3-0.1-0.3,0c0,0.2-0.1,0.3-0.4,0.3c-0.1,0-0.3,0-0.3,0.1c-0.1,0.2-0.3,0.3-0.6,0.3
		c-0.4,0.1-0.6-0.1-0.7-0.3c-0.1-0.2-0.3-0.3-0.7-0.3c-0.1,0-0.2,0-0.2,0.1c-0.1,0-0.1,0.1-0.2,0.1l-0.1,0c0,0.1-0.2,0.2-0.7,0.2
		c-0.5,0.1-0.8,0.2-1,0.4c-0.1,0.1-0.2,0.1-0.2-0.1c0-0.1-0.1-0.2-0.2-0.1c0,0.1-0.2,0-0.4-0.1c-0.2-0.2-0.3-0.2-0.1,0
		c0.1,0.1,0.1,0.2-0.1,0.4c-0.2,0.2-0.3,0.3-0.3,0.1c-0.1,0-0.2-0.1-0.4,0c-0.2,0-0.5,0-0.8,0.1c-0.3,0-0.5,0.1-0.7,0.2
		c-0.2,0.1-0.3,0.1-0.3,0.2c0.1,0.2,0,0.3-0.1,0.2c-0.2,0-0.4-0.1-0.6-0.4c-0.3-0.2-0.5-0.3-0.6-0.3c-0.1,0.1-0.1,0.1-0.2-0.1
		c0-0.2-0.1-0.4-0.2-0.3c-0.1,0-0.2,0-0.2-0.1c0-0.1,0.1-0.2,0.5-0.3c0.3,0,0.4,0,0.5,0.2c0,0.1,0.2,0.1,0.5-0.1
		c0.3,0,0.4,0,0.4,0.2c-0.1,0.3,0,0.4,0.1,0.4c0.1,0,0.2-0.1,0.2-0.4c0.2-0.5,0.6-0.6,1.2-0.5c0.2,0.1,0.2,0.1,0.2-0.2
		c0-0.1-0.1-0.1-0.3-0.1c-0.3,0-0.6,0-1,0c-1.1,0.1-1.9,0.1-2.3,0c-0.4,0-0.6-0.2-0.6-0.4c-0.1-0.5-0.2-0.8-0.2-0.7
		c-0.1,0.1-0.3,0.1-0.6,0.1c-0.3-0.1-0.5-0.2-0.5-0.3c0-0.1-0.1-0.3-0.3-0.4c-0.3-0.1-0.4-0.2-0.4-0.4c0,0-0.1-0.1-0.1-0.2
		c-0.1-0.1-0.2-0.2-0.3-0.3c-0.3-0.2-0.6-0.5-0.9-1c-0.3-0.4-0.4-0.7-0.3-0.8c0.1,0,0.1-0.1,0.1-0.3c0,0,0.1-0.1,0.4-0.1
		c0.7,0,1.4-0.1,2.1-0.2c0.8-0.1,1.2-0.2,1.2-0.3c0.2-0.1,0.2-0.4,0.2-0.9c0-0.5,0-0.9,0-1.3c0-0.4,0-0.7,0-1c0-0.3,0.1-1,0-1.9
		c0-0.4,0.1-0.8,0.1-1.1c0-0.3,0-0.5,0.1-0.6c0.1-0.1,0.1-0.2,0-0.3c-0.1,0-0.1-0.3-0.1-0.8c0-0.5,0-1,0-1.7c0-0.7,0-1.3,0-1.9
		c0-0.6,0-0.9,0-1.1c0-3.1,0.1-5.9,0.2-8.4c0.1-2.5,0.2-4.9,0.3-7.1c0.1-2.2,0.2-4.3,0.3-6.3c0.1-2,0.2-3.9,0.4-5.9
		c0.1-1.2,0.1-2.2,0.2-2.8c0.1-0.6,0.1-1.1,0.2-1.4c0.1-0.3,0.2-0.5,0.3-0.5c0.1,0,0.3-0.1,0.5-0.1c0.5,0,1,0.1,1.6,0.2
		c0.6,0.1,1,0.2,1.3,0.4c0.3,0.1,0.5,0.2,0.4,0.1c0-0.1,0.1-0.2,0.3-0.1c0.1,0,0.4,0,0.7-0.1c0.3-0.1,0.7-0.3,1.1-0.4
		c1.6-0.6,3.2-1.2,5-1.7c1.8-0.5,3.6-0.9,5.3-1.1c1.3-0.2,2.5-0.3,3.5-0.3c1,0,1.9,0.1,2.7,0.4c0.8,0.3,1.5,0.7,2.1,1.2
		c0.6,0.5,1.3,1.2,1.9,2.1c0.2,0.4,0.5,0.8,0.9,1.3c0.4,0.5,0.7,0.9,1,1.3c1,1.3,1.7,2.3,2,3.2c0.3,0.9,0.4,1.7,0.2,2.6
		c-0.2,0.6-0.5,1.3-0.9,2.2c-0.4,0.9-0.9,1.8-1.4,2.7c-0.3,0.5-0.7,1.1-1.2,1.8c-0.5,0.7-1,1.4-1.5,2c-0.5,0.6-1,1.2-1.4,1.6
		c-0.4,0.4-0.6,0.7-0.7,0.7c-0.2-0.1-0.3-0.1-0.1,0c0.1,0,0.1,0.1,0,0.4c-0.1,0.2-0.1,0.3,0.2,0.3c0.1,0,0.4,0,0.7,0
		c0.3,0,0.7,0.1,1.1,0.1c0.4,0,0.8,0.1,1.2,0.2c0.4,0.1,0.7,0.1,0.9,0.2c0.6,0.2,1.2,0.5,1.7,1c0.6,0.5,1.3,1.4,2.2,2.6
		c0.4,0.6,0.8,1.2,1.2,1.7C-48.9,438.8-48.7,439.1-48.6,439.2z M-84.5,461.6c0.1-0.1,0.1-0.1,0.2,0.1c0.1,0.4,0,0.4-0.2,0.2
		C-84.6,461.8-84.6,461.7-84.5,461.6z M-80.4,463.3c0.1,0,0.1,0,0.1-0.1c-0.1-0.4-0.2-0.5-0.5-0.2c-0.1,0.1-0.1,0.1,0,0.2
		C-80.6,463.2-80.5,463.3-80.4,463.3z M-79.2,462.2c0.3,0,0.4-0.1,0.4-0.2c0-0.1-0.1-0.2-0.3-0.3c-0.1,0-0.3,0-0.3,0.2
		C-79.5,462.2-79.4,462.2-79.2,462.2z M-79.5,454.5c-0.1,0.2-0.1,0.2,0,0.2c0.2,0,0.3-0.1,0.3-0.3c0.1-0.1,0.1-0.2-0.1-0.1
		C-79.5,454.4-79.5,454.5-79.5,454.5z M-78.2,462.6c0.1,0,0.2-0.1,0.2-0.2c0-0.1-0.1-0.2-0.3-0.2c-0.2,0-0.2,0.1-0.1,0.2
		C-78.4,462.6-78.3,462.6-78.2,462.6z M-78.2,461.9c0.2,0,0.3-0.1,0.3-0.1c0-0.1-0.1-0.1-0.2-0.2c-0.1,0-0.2,0-0.2,0.1
		C-78.3,461.8-78.3,461.9-78.2,461.9z M-79.3,452c-0.1,0-0.1,0.1-0.1,0.2c0,0.1,0.1,0.2,0.1,0.2c0.1,0,0.1-0.1,0.1-0.2
		C-79.1,452-79.2,452-79.3,452z M-77.7,462.5c0.2-0.1,0.2-0.2,0-0.4c-0.1-0.2-0.2-0.1-0.1,0.1C-77.8,462.3-77.8,462.4-77.7,462.5
		C-77.7,462.5-77.7,462.6-77.7,462.5z M-77.3,449.3l0-0.8c-0.1-0.5-0.2-0.8-0.3-0.8c-0.1,0-0.1,0.1-0.1,0.4c0.1,0.4,0.1,0.8,0,1.2
		c-0.1,0.4-0.1,0.7-0.2,0.8c-0.2,0-0.2,0.3,0,0.8c0.2,0.4,0.2,0.6,0,0.7c-0.4,0-0.5,0.2-0.4,0.6c0.1,0.3,0.2,0.5,0.3,0.6
		c0.1,0.1,0.1,0,0.1-0.2c0-0.1,0-0.2,0.1-0.1c0.1,0,0,0.4-0.3,1.1c-0.2,0.5-0.4,0.8-0.4,0.9c-0.1,0.2,0,0.3,0.3,0.3
		c0.5,0.1,0.7,0.1,0.6-0.2c0-0.1,0.1-0.3,0.4-0.4c0.3-0.1,0.3-0.2,0.1-0.2c-0.1,0-0.3-0.3-0.3-0.8c0-0.4,0.1-0.6,0.3-0.6
		c0.2,0,0.3-0.1,0-0.3c-0.1-0.2-0.2-0.4-0.3-0.5c0-0.1,0-0.2,0.1-0.1c0.1,0,0.2-0.3,0.1-0.7c0-0.7-0.1-1.1-0.1-1.3
		C-77.4,449.4-77.3,449.3-77.3,449.3z M-78.5,450.9c-0.3,0.1-0.3,0.2,0,0.3c0.2,0.1,0.3,0.1,0.4,0c0.1-0.1,0.1-0.2,0-0.3
		C-78.2,450.8-78.4,450.8-78.5,450.9z M-76,463.1c0.1-0.2,0.2-0.2,0.2-0.2c0,0,0,0.1,0.1,0.2c0,0.2-0.2,0.4-0.6,0.5
		c-0.4,0.1-0.6,0.1-0.6-0.1c0-0.2,0-0.4,0.2-0.4c0.2,0,0.3,0,0.3,0.2C-76.4,463.5-76.2,463.4-76,463.1z M-75.4,462.7
		c0.1-0.2,0.2-0.1,0.2,0.1c0,0.1,0,0.2-0.2,0.4c-0.1,0.1-0.1,0.1-0.2-0.1C-75.5,462.9-75.5,462.8-75.4,462.7z M-77.4,445.5
		c-0.1-0.1-0.2-0.1-0.2,0.1c0,0.1,0,0.3,0.1,0.5l0.2,0.3l0-0.4C-77.3,445.7-77.3,445.6-77.4,445.5z M-77.3,447c0,0,0.1,0,0.1-0.1
		c0-0.1,0-0.1-0.1-0.2c-0.1-0.1-0.1-0.1-0.1,0.1C-77.4,447.1-77.4,447.1-77.3,447z M-74.7,462.6c0.3,0.1,0.4,0.1,0.4,0.1
		c0-0.1,0-0.2-0.3-0.3c-0.3-0.2-0.4-0.2-0.5-0.1C-75.2,462.4-75,462.5-74.7,462.6z M-77.5,444.6c0,0.1,0,0.2,0,0.2
		c0,0,0,0.1,0.1,0.1l0,0.1c0.1,0,0.2-0.2,0.2-0.5c-0.1-0.4-0.1-0.6-0.2-0.6C-77.5,444-77.5,444.2-77.5,444.6z M-74.4,462.2
		c0.1-0.1,0.1-0.2,0-0.3c-0.1-0.1-0.1-0.2-0.2,0c-0.1,0.1-0.1,0.2-0.1,0.3C-74.6,462.2-74.5,462.2-74.4,462.2z M-74.8,460
		c0,0.7,0,0.9,0.3,0.8c0.1-0.1,0.1-0.3,0-0.4c-0.1-0.2-0.1-0.3,0.1-0.4c0.2-0.1,0.3,0,0.5,0.2c0.2,0.2,0.3,0.2,0.5,0.1
		c0.2-0.2,0.1-0.3,0-0.3c-0.1,0-0.3-0.1-0.4-0.4c-0.2-0.3-0.3-0.4-0.2-0.2s0,0.3-0.1,0.3c-0.1,0-0.2,0-0.2-0.2c0-0.2-0.1-0.2-0.2,0
		C-74.8,459.6-74.8,459.8-74.8,460z M-74.5,461.5c0.1,0,0.2-0.1,0.2-0.1l-0.2-0.2c-0.1,0-0.1,0-0.1,0.1
		C-74.6,461.5-74.6,461.5-74.5,461.5z M-75.5,452.5c-0.1,0-0.1,0.1,0,0.4c0.1,0.2,0.2,0.3,0.3,0.4c0.1,0,0.2-0.1,0.1-0.3
		c0-0.3-0.1-0.6,0-0.7s0-0.2-0.1-0.2c-0.2,0.1-0.3,0.2-0.2,0.3C-75.4,452.4-75.4,452.5-75.5,452.5z M-74,462.4
		c0.1,0.1,0.2,0.1,0.5-0.1c0.3-0.2,0.4-0.3,0.4-0.4c0-0.1-0.1-0.3-0.3-0.3c-0.2-0.1-0.3-0.1-0.4,0.1c-0.1,0.1-0.2,0.2-0.3,0.4
		C-74.2,462.1-74.2,462.3-74,462.4z M-75.6,451.7C-75.6,451.7-75.6,451.8-75.6,451.7C-75.6,451.8-75.6,451.8-75.6,451.7
		c0.3,0,0.4-0.2,0.4-0.5c0.2-1.1,0.1-1.7-0.2-1.6c-0.2,0-0.2,0.1,0,0.2c0.1,0.2,0,0.3-0.1,0.3c0,0-0.1,0-0.1,0.1l0,0.1
		c0.1,0.1,0.1,0.2,0,0.4c-0.1,0.3-0.1,0.5,0,0.6C-75.4,451.4-75.4,451.6-75.6,451.7z M-74.1,458.4c-0.1-0.1-0.2-0.2-0.3-0.4
		c-0.1-0.1-0.2-0.1-0.1,0c0,0.1,0.1,0.2,0.2,0.4c0.1,0.2,0.2,0.3,0.3,0.3L-74.1,458.4z M-75.3,449.2c-0.1,0.1-0.1,0.2-0.1,0.2
		C-75.5,449.4-75.4,449.4-75.3,449.2c0.2,0,0.3-0.1,0.3-0.3c0-0.2,0-0.3-0.1-0.3c-0.1,0-0.2,0.1-0.3,0.2c0,0.1,0.1,0.1,0.2,0.1
		c0.1,0,0.1,0,0.1,0.1C-75.2,449.1-75.2,449.2-75.3,449.2z M-70.9,458.7c0.8,0,1-0.3,0.5-0.9l-0.3-0.4l0.1,0.4c0,0.3,0,0.4-0.2,0.3
		c-0.2-0.1-0.3,0-0.4,0.1c0,0-0.1,0.1-0.2,0.2c-0.1,0.1-0.3,0.1-0.4,0.2c-0.4,0.1-0.5,0.1-0.5-0.1s-0.1-0.2-0.5-0.1
		c-0.1,0-0.3,0.1-0.4,0.1c-0.1,0.1-0.2,0.2-0.2,0.2c0,0-0.1,0.1-0.2,0.1c-0.2-0.1-0.2-0.1-0.2,0.1c0,0.1,0.1,0.3,0.3,0.5
		c0.2,0.2,0.4,0.3,0.7,0.3c0.2,0,0.3-0.1,0.1-0.2c0-0.1,0.1-0.2,0.2-0.3c0.2-0.1,0.3,0,0.2,0.1c0,0.1,0.1,0.1,0.3-0.1
		c0.2-0.3,0.3-0.4,0.3-0.2c-0.1,0.2,0,0.2,0.1,0.1c0.2-0.1,0.4-0.2,0.4-0.1c0.1,0.1,0.1,0,0-0.1C-71.4,458.8-71.2,458.7-70.9,458.7z
		 M-77,435.9c-0.2,0-0.2,0.1,0,0.2c0,0.1,0,0.1,0.1,0.1c0,0,0,0.1,0.1,0.1c0.1,0,0.1-0.1,0.1-0.2C-76.8,435.9-76.9,435.8-77,435.9z
		 M-55.8,441.6c0.4-0.5,0.6-0.9,0.7-1c0.1-0.2,0.1-0.3,0-0.3c-0.3-0.1-0.9,0-1.8,0.1c-1,0.1-2,0.3-3.3,0.6c-1.2,0.2-2.5,0.5-3.8,0.8
		c-1.3,0.3-2.5,0.6-3.5,0.9c-0.5,0.2-1.1,0.4-1.8,0.7c-0.7,0.3-1.4,0.6-2.1,0.9c-0.7,0.3-1.3,0.6-1.8,0.8c-0.5,0.2-0.8,0.4-0.8,0.4
		c0,0.1-0.1,0.3-0.1,0.8c-0.1,0.5-0.1,0.9-0.1,1.2c0,0.4-0.1,1-0.1,1.9c0,0.9-0.1,1.7-0.2,2.6c-0.1,0.8-0.1,1.2,0,1.3
		c0.1,0.1,0.3,0,0.7-0.1c0.4-0.2,1.3-0.6,2.7-1.2c3.7-1.8,6.8-3.5,9.3-5.2S-57.4,443.3-55.8,441.6z M-77.1,435.1c0,0.1,0,0.3,0,0.4
		c0,0.1,0.1,0.1,0.2,0c0.1,0,0.1-0.2,0.1-0.5c0-0.3-0.1-0.5-0.2-0.4C-77.1,434.5-77.1,434.7-77.1,435.1z M-74.9,446.5
		c0-0.3-0.1-0.4-0.2-0.2c-0.1,0.1-0.1,0.2-0.1,0.4c0,0.2,0,0.2,0.1,0.2C-74.9,447-74.9,446.8-74.9,446.5z M-72.7,461.9
		c0.2-0.1,0.2-0.2,0-0.4c-0.1-0.2-0.2-0.2-0.3-0.1c-0.1,0.1-0.1,0.3,0.1,0.4c0,0.1,0,0.1,0.1,0.2C-72.8,462-72.8,462-72.7,461.9z
		 M-73.2,458.9c0-0.1,0.1-0.2,0.2-0.2c0,0.1,0,0.3-0.1,0.4C-73.3,459.1-73.3,459.1-73.2,458.9z M-71.9,461.3c0.2,0,0.3-0.1,0.3-0.2
		c0-0.1-0.2-0.1-0.4-0.1c-0.3,0-0.5,0.1-0.6,0.2c-0.1,0,0,0.1,0.2,0.3c0.2,0.2,0.3,0.3,0.4,0.3c0.2,0,0.3-0.1,0.1-0.3
		C-72.1,461.3-72.1,461.2-71.9,461.3z M-71.2,460.9c0-0.1,0-0.1-0.1-0.1c-0.1,0.1-0.1,0.2-0.1,0.3c0,0.1,0,0.1,0.1,0.1
		C-71.3,461.2-71.2,461.1-71.2,460.9z M-68.8,460.1c0.2,0,0.3-0.1,0.3-0.2c0-0.1-0.1-0.1-0.2-0.1c-0.1,0-0.3,0.1-0.5,0.2
		c0,0.1-0.1,0.1-0.2,0.1c-0.1,0-0.1,0-0.1-0.1c-0.1-0.1-0.3-0.1-0.5,0c-0.2,0.1-0.4,0.2-0.5,0.3c0,0.1,0.1,0.1,0.2,0.1
		c0.1-0.1,0.2-0.1,0.2,0c0,0.1,0.2,0.1,0.4,0.1c0.3,0,0.4-0.1,0.4-0.1C-69.2,460.3-69,460.2-68.8,460.1z M-73.7,433.4
		c-0.1,0.5-0.1,0.8,0,0.8c0.1-0.1,0.2-0.1,0.3-0.3c0.1-0.1,0.2-0.2,0.4-0.3c0.2-0.1,0.3-0.3,0.6-0.4c1.9-1.7,3.9-3.6,5.8-5.6
		c1.9-2.1,3.6-4,5-5.9c2.2-2.9,3.3-4.6,3.2-5c0,0-0.3,0-0.9,0c-0.6,0.1-1.4,0.2-2.2,0.3c-0.9,0.1-1.8,0.3-2.7,0.5
		c-0.9,0.2-1.6,0.4-2.2,0.5c-0.9,0.3-1.8,0.6-2.7,1c-0.9,0.3-1.6,0.6-2.3,0.9c-0.7,0.3-1.2,0.6-1.6,0.8c-0.4,0.2-0.6,0.4-0.5,0.6
		c0,0.1,0,0.7,0,1.7c0,1,0,2.1,0,3.4c0,1.3,0,2.6-0.1,3.9C-73.6,431.5-73.6,432.5-73.7,433.4z M-69.8,458c0,0.1,0.1,0.1,0.3,0
		c0.3-0.1,0.4-0.1,0.4,0c0,0.1,0.1,0.2,0.1,0.2l0-0.1c0,0,0-0.1,0-0.1c0,0,0-0.1,0-0.2c0-0.2-0.2-0.3-0.4-0.2
		C-69.6,457.7-69.7,457.9-69.8,458z M-66.6,459.2c0-0.1-0.2-0.2-0.6-0.1c-0.4,0.1-0.7,0.2-0.9,0.4c-0.2,0.3-0.1,0.5,0.4,0.5
		c0.3,0,0.5-0.2,0.6-0.4c0-0.2,0.1-0.3,0.2-0.3C-66.8,459.3-66.7,459.2-66.6,459.2z M-67.9,457c0,0.2,0.1,0.3,0.3,0.2
		c0.2,0,0.2-0.2,0.2-0.4c0-0.2-0.1-0.3-0.3-0.2C-67.9,456.5-67.9,456.7-67.9,457z M-67,456.9c0.3,0.1,0.4,0.1,0.4-0.1
		c0-0.1-0.1-0.2-0.4-0.2c-0.2,0-0.3,0-0.3,0.1C-67.3,456.8-67.2,456.8-67,456.9z M-65.3,458.6c0.3,0,0.4-0.1,0.4-0.2
		c0,0-0.1-0.1-0.4,0c-0.1,0.1-0.2,0.1-0.4,0.1c-0.2,0-0.3,0-0.4,0.1c-0.1,0-0.2,0-0.2,0.1c0,0,0,0,0.1,0c0.2,0.1,0.3,0.2,0.2,0.3
		C-66,459-66,459-65.9,459c0.1,0,0.2-0.1,0.2-0.2C-65.7,458.7-65.6,458.6-65.3,458.6z M-65.9,456.2c-0.1,0.1,0,0.1,0.2,0.1
		c0.2,0,0.3-0.1,0.2-0.1c0,0-0.1,0-0.1,0C-65.8,456.1-65.8,456.1-65.9,456.2z M-64.3,455.5c0.2,0,0.2-0.1,0.1-0.2
		c-0.1-0.1-0.2-0.1-0.4,0.1c-0.1,0.1-0.1,0.3,0,0.3c0.1,0.1,0.2,0.1,0.2,0.1l0-0.2C-64.5,455.6-64.5,455.5-64.3,455.5z M-63.6,455
		c0.1-0.2,0.1-0.2-0.1-0.2c-0.1,0-0.2,0.1-0.2,0.2c0,0.1,0.1,0.1,0.2,0.1C-63.7,455.2-63.7,455.1-63.6,455L-63.6,455z M-61.2,456.5
		c0-0.1-0.1-0.1-0.4,0c-0.6,0.1-0.8,0.3-0.8,0.6c0,0.1,0.1,0.1,0.2,0.1c0.1,0,0.2-0.1,0.3-0.2c0,0,0-0.1,0.1-0.2
		c0.1-0.1,0.2-0.1,0.3-0.1C-61.4,456.7-61.2,456.6-61.2,456.5z M-60.1,453.6l0.1-0.2c0-0.1-0.1-0.2-0.2-0.2c-0.1,0-0.2,0.1,0,0.2
		C-60.3,453.6-60.2,453.6-60.1,453.6z M-61.8,431.5c0.3-0.4,0.4-0.6,0.1-0.4c-0.3,0.2-0.5,0.5-0.6,0.7c-0.2,0.3-0.4,0.4-0.5,0.4
		c-0.1,0-0.2,0.1-0.4,0.3c-0.1,0.2-0.1,0.3,0,0.3c0,0,0.2-0.1,0.5-0.4C-62.5,432.3-62.2,432-61.8,431.5z M-57.9,454.7
		c0.2,0.1,0.3,0.2,0.4,0.2c0,0,0-0.1,0-0.2c0-0.1-0.1-0.1-0.3-0.1C-58,454.6-58.1,454.7-57.9,454.7z M-60.8,430.5
		c0-0.1-0.1-0.1-0.2-0.1c-0.1,0-0.1,0.1-0.1,0.3c0,0,0,0.1,0.1,0.1c0,0,0.1,0,0.1-0.1C-60.8,430.7-60.8,430.6-60.8,430.5z
		 M-60.2,429.8c0-0.1,0-0.1,0-0.1c-0.1,0-0.1,0-0.2,0.1c-0.1,0.1-0.2,0.1-0.2,0.2c0,0.1,0,0.1,0.2,0
		C-60.4,430.1-60.3,430-60.2,429.8z M-58.8,431.5c0.1,0,0.2-0.1,0.2-0.2c0-0.1-0.1-0.2-0.2-0.2c-0.1,0-0.1,0.1-0.1,0.2
		C-59,431.5-58.9,431.5-58.8,431.5z M-57.6,426.8c0-0.1,0-0.2-0.1-0.2c-0.1,0-0.1,0.1-0.1,0.2l0,0.1l0.1,0
		C-57.6,426.9-57.6,426.9-57.6,426.8z M-56.9,425.9c0-0.1-0.1-0.1-0.2-0.1c-0.1,0-0.1,0.1-0.1,0.2c0,0.1,0.1,0.2,0.1,0.2
		C-57.1,426.1-57,426-56.9,425.9z M-50.6,445.7c0.2-0.1,0.2-0.1,0-0.2c-0.4-0.1-0.5,0-0.5,0.3C-51.1,446-50.9,446-50.6,445.7z"/>
</g>
</svg>
